<?xml version="1.0" encoding="utf-8"?>
<!-- Generator: Adobe Illustrator 25.0.0, SVG Export Plug-In . SVG Version: 6.00 Build 0)  -->
<svg version="1.1" id="Layer_1" xmlns="http://www.w3.org/2000/svg" xmlns:xlink="http://www.w3.org/1999/xlink" x="0px" y="0px"
	 viewBox="0 0 446.2 388.9" style="enable-background:new 0 0 446.2 388.9;" xml:space="preserve">
<style type="text/css">
	.st0{fill:#FFFFFF;}
	.st1{fill:#302928;}
	.st2{fill:#FDFDFD;}
	.st3{fill:#9D8E84;}
	.st4{fill:#437578;}
	.st5{fill:#53B748;}
	.st6{fill:#87C665;}
</style>
<path class="st0" d="M399.8,211.4c-11.9,11-21.3,24.1-30.9,37c-1.9,2.6-3.9,2.4-6.3,1.4c-4.3-1.8-8.7-3.3-13.5-1.9
	c-0.2-0.5-0.2-1.2-0.1-1.6c8.1-7.9,16-15.9,22.3-25.4c4.2-6.3,10.4-11.1,17.7-13.7c3.3-1.2,7-0.8,10.3,1.1
	C400.8,209.1,401.2,210.1,399.8,211.4z"/>
<path d="M195.8,371.5c-0.2-0.1-0.4-0.2-0.6-0.3C195.5,371,195.7,371.1,195.8,371.5z"/>
<path d="M200.7,288c3.7,0,7.4,0,11.1,0.1c-1.7,0.8-3.4,1.6-5.1,2.5C202.3,292.7,202.3,292.7,200.7,288z"/>
<path d="M202.3,348.4c5.1-0.2,10.4-1.1,15.4,1c0.7,0.3,1.8-0.2,2.7-0.3c1-0.1,2.5-0.9,2.9,0.6c0.3,1.2-1.1,1.9-2.2,2.2
	c-2.6,0.7-5.2,1.5-7.8,1.8c-4,0.4-8.1,1.1-12.4,0.6c-4.7,0.8-9.4-0.4-14.1-1.2c-3.9-0.7-6.2-4.2-9.1-6.6c-1.9-1.5-3.7-3.2-5.7-4.5
	c-1.2-0.8-3.2-1.7-1.6-3.4c1.3-1.5,3-3.3,5.4-1.5c3.3,2.3,6.7,4.7,10,7C190.9,347.3,196.2,348.6,202.3,348.4z"/>
<path d="M439.2,239c-11.2,14.9-21.7,30.3-33,45.1c-7,9.2-15.9,17-25.8,23.3c-7.2,4.6-13.2,10.6-19.5,16.2
	c-9.2,8.1-18.8,15.6-30,20.9c-4.1,1.9-8.4,2.5-12.8,2.4c-3.2,0-5.8,0.8-8.6,2.4c-6.5,3.8-13.6,6.1-20.8,7.9
	c-13.1,3.3-26.2,6.5-39.4,9.6c-8.5,2-17.1,3.8-25.4,6.7c-4.4,1.5-8.5,3.9-13.1,5.1c-5,1.3-10,1.3-14.7-0.4
	c-6.7-2.3-13.2-5.3-19.5-8.7v0c-1.6-0.1-2.8-0.9-3.9-2c-0.3-0.2-0.7-0.3-1-0.5c-0.2-0.1-0.4-0.3-0.5-0.4c-7.6-5.9-15.2-11.8-22-18.5
	c-15.7-15.3-32.5-29.2-50.1-42.3c-12.1-9-24.9-17-38.8-22.9c-5.1-2.1-10.7-3.2-16.2-4.2c-10-1.8-20.2-2.3-30.4-2.8
	c-1.3-0.1-2.4-0.2-3.3-1.2c-1.9-2.4-4.8-3.6-7-5.7c-3.4-3.2-2.7-6.3,1.6-8.3c1.1-0.5,2.2-0.6,3.3-0.6c18.9,0.4,36.7,5.2,53.9,13.2
	c18,8.3,33.5,20.3,49.4,31.7c12.3,8.8,22.6,19.8,33,30.7c5.5,5.8,10.8,11.7,17,16.6c3.9,3.1,8.4,5.4,12.5,8.2
	c0.8,0.6,1.7,1.1,2.5,1.7c0,0,0,0,0,0c5.3,3.6,11.7,5.2,17.1,8.6c-5.1-0.1-10.1-0.6-14.8-2.7c-0.7-0.3-1.3-0.5-1.8-0.3
	c0.5-0.2,1.1,0,1.8,0.3c4.7,2.1,9.7,2.6,14.8,2.7c0.4,0.1,0.9,0.1,1.3,0.2c0.2,0.1,0.4,0.2,0.7,0.3c6.3,1,12.4,0.5,18.7-0.9
	c7-1.6,13.9-3.7,20.9-5.3c15.7-3.7,31.4-7.4,47-11.7c6.5-1.8,13.3-1.7,19.9-3.4c0.4-0.1,0.9,0,1.2-0.2c0.9-0.4,2.3-0.7,2.2-1.9
	c-0.1-1.5-1.6-1-2.5-0.9c-4.5,0.6-9,1.6-13.6,2c-15.1,1.2-30.2,2.5-45.3,0.9c-1.6-0.2-3.1-0.9-4.7-1.1c-2-0.3-2.1-1.7-2-3.2
	c0.1-1.5,1-2.5,2.6-2.5c1.6-0.1,3.3-0.2,4.9,0c6.8,1.2,13.6,0.4,20.3-0.1c6.6-0.4,13.1-1.3,19.6-2.2c6.8-1,13.7-1,20.5-0.9
	c8.4,0.1,16.7,0.1,25.1-0.5c4.6-0.3,7.4-3.4,10.6-6.1c7.9-6.7,14.5-14.7,22-21.8c4.2-4.1,9.1-7.3,13.5-11
	c7.4-6.1,14.7-12.3,23.1-16.9c0.9-0.5,1.5-1.4,2.1-2.2c9.5-14.1,19.4-27.9,29.6-41.5c1.5-2,2.9-4.2,3.9-6.5c0.8-1.8,0.4-3-1.1-3.9
	c-1.1-0.6-1.8-1.6-2.8-2.3c-2.7-2-5.2-3.4-9.2-2.9c-8.4,1.1-14.2,6.2-20,11.6c-5.1,4.7-10,9.6-15.4,14c-2.7,2.2-1.9,5.9-1.2,8.9
	c0.7,2.9,1.6,5.9,3.3,8.5c0.6,0.9,0.8,1.7-0.2,2.4c-1.2,0.8-1.6-0.2-2.1-1c-1.4-2.5-3.1-4.8-4.1-7.5c-0.8-2-1.7-2.3-3.4-1.5
	c-9.5,4.3-18.5,9.5-26.4,16.5c-4.7,4.2-9.5,8.4-14.4,12.4c-3.2,2.6-5.4,5.9-7.2,9.4c-1.2,2.4,0.9,4.8,1.6,7.2c0.8,2.7,1.9,5.4,3.1,8
	c0.5,1.2,0.3,2.1-0.6,2.6c-1.2,0.7-1.4-0.7-1.8-1.4c-3.2-5.5-6.1-11.2-11.6-15c-3-2.1-6.3-2.7-9.7-3.6c-11.8-3.1-23.7-3.5-35.8-1.9
	c-5.9,0.8-12,1-17.8,2.6c-3.4,0.9-5.9-0.6-8.3-2.5c-9.3-7.1-20-8.6-31.3-8c0,0,0,0,0,0c-0.6,0.1-1.2,0.2-1.8,0.3
	c0.1-0.3,0.3-0.5,0.5-0.6c0.1,0,0.1-0.1,0.2-0.1c0,0-0.1,0-0.1,0c-0.1,0-0.2,0.1-0.2,0.2c0,0,0,0,0,0c0,0.1-0.1,0.1-0.1,0.2
	c0,0.1-0.1,0.2-0.1,0.2c-1.9,0.2-3.7,0.8-5.5,1.6l-11.1-0.1c-2.3-4.8-6.1-7.9-10.6-10.7c-8.6-5.2-13.5-13.4-17.1-22.6
	c-4.7-11.9-2.7-10.3-14.9-6.7c-5.5,1.6-10.9,3.4-15.7,6.7c-0.5,0.3-1.1,0.7-1.7,0.2c-0.6-0.5-0.5-1.4-0.3-2c0.2-0.5,0.7-1,1.2-1.3
	c4.5-2.8,8.8-5.8,13.6-8.1c11.4-5.6,23.6-8.8,36.3-10.3c10.3-1.2,20.5-2.2,30.8-1.7c4.7,0.2,9.3,0.6,13.9,1.6
	c7.8,1.6,15.6,0.8,23.4-0.6c15.1-2.8,29.6-7.5,43.9-12.7c6.5-2.3,8.9-13.2,4.5-18.6c-3.2-3.9-7.5-5.4-12-5.9
	c-13.2-1.5-26.1-3.9-38.6-8.1c-6.3-2.1-13-1.6-19.5-0.7c-11.5,1.8-23,3.5-34.4,5.6c-9.2,1.7-18.3,1.9-27.3-0.6
	c-3.8-1.1-7.5-2.5-11.2-4.1c-7.2-3.1-14.9-3.3-22.5-4.5c-10.7-1.6-20.9,0.5-31.2,3c-8.6,2.1-17.4,3.3-26.2,4.5
	c-2.7,0.4-5.2,1.3-6.1,4.5c-0.6,2.1-2.4,1.4-3.1,0.6c-1.9-1.9-4.1-3.8-5.2-6.3c-1-2.2-0.7-3.6,1.9-4.7c6.2-2.5,12.7-3.4,19.2-3.3
	c8,0.1,15.6-1,23.2-3.5c8.4-2.8,17.2-3.7,25.9-3.9c8.3-0.1,16.4,2.1,23.9,5.6c5.7,2.7,11.6,5,17.6,6.8c4.7,1.4,9.7,1.4,14.6,0.9
	c8.1-0.9,16.1-1.9,24.2-3c6-0.8,11.8-2.1,17.8-2.9c9.2-1.2,18.1-0.8,26.7,3.1c3.5,1.6,7.4,2.2,11.2,2.9c2.4,0.4,3.3-0.5,3.2-3
	c-0.2-6-0.1-12.1,0-18.1c0-2.3,0.3-4.7,0.5-7c0.1-1.9-0.8-3.2-2.6-3.6c-12-3.2-21.4-10.6-30.6-18.4c-2.9-2.5-6-4.8-8.8-7.4
	c-1.4-1.3-2.5-0.6-3.5,0.2c-6.2,4.9-13.5,7.5-20.7,10.4c-6,2.4-12.5,3.6-19,4c-8.8,0.6-17,3.4-25.4,5.7c-8.2,2.2-16.3,5.1-24.7,6.5
	c-11.2,2-22.3,3.9-33.4,6.2c-6.9,1.4-13.7,3.5-20.8,3.4c-3.3,0-6.7-0.7-10-1c-9.5-0.9-19,0.5-28.5,1.3c-7,0.6-14.2,0.7-21.2-0.3
	c-4.5-0.7-8.7,0.1-13,1c-1,0.2-2.3,0.9-2.9-0.6c-0.5-1.3-0.8-2.4,0.3-3.9c6.5-9.5,15.8-15.4,25.2-21.3c5.6-3.5,11-7.4,16-11.7
	c0.9-0.8,1.5-1.6,2.1-2.6c3.4-6.5,7-12.8,10.3-19.4c2.8-5.5,3.5-11.6,5.1-17.4c3.8-13.8,7.7-27.5,16.1-39.5c4.2-6,9.9-9.9,16.4-12.7
	c12.2-5.2,25-5.8,38-4.6c9.3,0.8,18.4,2.6,26.9,6.3c5.7,2.5,10.8,6.1,14.6,11.2c1.3,1.8,3.8,1.8,5.7,2.2c13,2.9,25.4,7.3,37,13.7
	c8.4,4.6,16.2,10.1,23.3,16.6c6.5,5.8,12.9,11.8,18.4,18.5c3.3,4,6.1,8.5,8.7,13.3c0.2-5.3,0.7-10.5-0.2-15.8
	c-1.6-8.7-3.4-17.2-6.4-25.6c-3.6-10.1-9.1-19.3-14.3-28.7c-2.3-4.1-5-8.1-6.4-12.5c-1.5-4.7-1.9-9.7,2.1-14
	c5.5-5.8,10.7-7.1,18.9-4c10.4,4,20.8,8,30.2,14.1c5.5,3.6,10.4,7.9,15,12.6c1.3,1.4,2.8,2.4,4.6,2.9c11.7,3.1,21.8,9.1,31.3,16.3
	c4.7,3.5,9.5,6.8,13.7,10.7c8.1,7.6,14.3,16.6,16.2,27.7c1.1,6.6,1.8,13.3,1.1,20.3c-0.8,7.8-0.6,15.8,0.8,23.8
	c2,10.7,5.8,20.7,10.5,30.4c1.2,2.6,1.5,4.7,0.1,7.1c-0.1,0.2-0.2,0.4-0.3,0.6c-3,6.1-3.4,6.4-10,3.8c-13.7-5.4-27-11.6-38.1-21.6
	c-4.9-4.3-10.3-8.1-14.6-13c-10.3-11.8-21.2-23.2-29.5-36.6c-3.1-5-5.4-10.5-6-16.5c-0.1-0.6-0.1-1.3-0.8-1.5
	c-0.7-0.2-1.1,0.4-1.6,0.7c-2.8,2-2.4,5.2-2.4,7.8c-0.2,16.4-0.4,32.8,0,49.2c0.2,7.1,1.4,14.1,2.5,21.1c0.4,2.6,0.4,5.1,0.4,7.6
	c0,2.4,1.4,4.5,1.5,6.9c0,0.6,0.8,1.2,1.6,1.3c2.2,0.3,4,1.6,6,2.2c6.2,1.8,9.4,6.6,10.9,12.2c1.3,5,0.5,10.3-3.4,14.4
	c-1.9,2-3.6,4.3-6.1,5.5c-3.7,1.7-2.4,5.2-2.8,7.9c-0.4,2.5,1.6,3.9,3.9,4.5c0.4,0.1,0.7,0.4,1.1,0.6l0,0c1.2,0.6,2.5,1,3.5,1.7
	c1.4,0.9,2.6,0.7,4,0.1l0,0c0.7-1.2,2.1-1.4,3.2-1.5c6.5-0.5,13-1,19.1,2.2c2.9,1.5,3.5,4.5,5.2,6.8c0,0.1,0.1,0.2,0.1,0.2
	c1.1,2,3.1,0.6,4.7,1.1c0.1,0,0.1,0,0.2,0c4.8-1.4,9.1,0.1,13.5,1.9c2.4,1,4.4,1.2,6.3-1.4c9.6-12.9,19-26,30.9-37
	c1.4-1.3,1-2.3-0.5-3.1c-3.3-1.9-7-2.2-10.3-1.1c-7.3,2.6-13.5,7.3-17.7,13.7c-6.3,9.5-14.2,17.5-22.3,25.4
	c-0.2,0.5-0.6,1.1-0.1,1.7c-1.5-0.4-3.6,1-4.7-1c0-0.1-0.1-0.2-0.1-0.3c0.3,0.1,0.5,0.2,0.8,0.2c0.9,0,1.7-0.5,2.5-0.7
	c0.1-0.1,0.1-0.2,0.1-0.2c0,0,0,0,0,0c1.3-2.3,3.6-3.8,5.3-5.8c6.1-6.8,11.4-14.2,17-21.3c5.7-7.2,12.4-13.2,21.7-15.6
	c3.9-1,7.3,0.3,10,2.5c3,2.3,5,0.8,7.1-0.6c5.8-3.9,12-6.2,19-6.2c3.6,0,6,1.7,8.1,4.1c0.8,0.9,1.5,1.9,2.3,2.8
	c1,1.2,1.6,2.5,0.8,4.2c-1.4,3.2-2.5,6.6-3.9,9.9c-0.6,1.4-0.1,2,1,2.8C442,226.7,443.5,233.3,439.2,239z"/>
<g>
	<path class="st1" d="M436.1,222.7c-1.1-0.7-1.6-1.4-1-2.8c1.4-3.3,2.5-6.6,3.9-9.9c0.8-1.7,0.1-3-0.8-4.2c-0.8-1-1.5-1.9-2.3-2.8
		c-2.1-2.4-4.5-4.1-8.1-4.1c-7.1,0-13.3,2.3-19,6.2c-2.2,1.5-4.2,2.9-7.1,0.6c-2.8-2.2-6.1-3.5-10-2.5c-9.3,2.4-16,8.3-21.7,15.6
		c-5.6,7.2-10.9,14.5-17,21.3c-1.8,1.9-4,3.4-5.3,5.8c0,0,0,0,0,0c0,0.1-0.1,0.2-0.1,0.2c0,0,0,0,0,0c0.5,0,1,0.1,1.5,0.2
		c0,0,0,0,0,0c8.1-7.9,16-15.9,22.3-25.4c4.2-6.3,10.4-11.1,17.7-13.7c3.3-1.2,7-0.8,10.3,1.1c1.5,0.9,1.9,1.9,0.5,3.1
		c-11.9,11-21.3,24.1-30.9,37c-1.9,2.6-3.9,2.4-6.3,1.4c-4.3-1.8-8.7-3.3-13.5-1.9c-0.1,0-0.1,0-0.2,0c-1.5-0.4-3.6,1-4.7-1.1
		c0-0.1-0.1-0.2-0.1-0.2c-1.7-2.3-2.3-5.3-5.2-6.8c-6.1-3.1-12.6-2.6-19.1-2.2c-1.1,0.1-2.4,0.3-3.2,1.5l0,0
		c0.7,1.1,1.6,0.9,2.6,0.7c0.9-0.2,1.9-0.8,2.8,0.1c1.2-0.1,2.3-0.2,3.5-0.3v0c0,0,0,0,0,0c0.1-0.2,0.2-0.3,0.3-0.4c0,0,0,0,0.1-0.1
		c0,0,0,0,0.1-0.1c0,0,0.1-0.1,0.1-0.1c0.1-0.1,0.2-0.1,0.3-0.1c0.1,0,0.1,0,0.2,0c0.1,0,0.1,0,0.2,0s0.1,0,0.2,0
		c0.1,0,0.2,0,0.3,0.1c0.2,0,0.3,0.1,0.5,0.2c0.2,0.1,0.3,0.2,0.5,0.2h2.6l0,0c0.1-0.1,0.1-0.1,0.2-0.2c0.1,0,0.1-0.1,0.2-0.1
		c0.1,0,0.1-0.1,0.2-0.1c0,0,0.1,0,0.1,0c0.1,0,0.2,0,0.3,0c0.1,0,0.1,0,0.2,0c0.2,0,0.3,0.1,0.5,0.3c0,0,0.1,0.1,0.1,0.1
		c0.1,0.1,0.2,0.3,0.3,0.5c0,0,0,0,0,0c0.8,0.2,1.5,0.5,2.2,0.9c0.1,0.1,0.2,0.2,0.3,0.3c0,0,0,0,0,0c0,0,0.1,0.1,0.1,0.1
		c0,0,0,0,0.1,0.1c0.1,0.1,0.2,0.2,0.4,0.4c0.3,0.3,0.5,0.6,0.7,0.9h0c0.6,0.5,1.3,0.9,1.9,1.4c0.9,0.6,1.7,1.2,2.5,2
		c0,0,0.1,0.1,0.1,0.1c0.1,0,0.1,0.1,0.1,0.1c0.1,0.1,0.2,0.2,0.3,0.3c0.1,0.1,0.1,0.1,0.2,0.2c0,0,0,0,0,0c0.1,0.2,0.3,0.3,0.4,0.5
		c0.2,0.2,0.5,0.5,0.7,0.7c0.1,0.1,0.2,0.1,0.3,0.2c0.3,0.3,0.6,0.5,0.9,0.7c0.2,0.1,0.3,0.2,0.5,0.3c0.2,0.1,0.3,0.2,0.5,0.3
		c0.2,0.1,0.3,0.2,0.5,0.2c0.1,0.1,0.3,0.1,0.4,0.2s0.3,0.1,0.4,0.2c0.3,0.1,0.7,0.2,1,0.3c0.1,0,0.3,0.1,0.4,0.1
		c0.2,0.1,0.4,0.1,0.7,0.1c0.2,0,0.4,0,0.5,0.1c0.2,0,0.5,0.1,0.7,0.1c0,0,0.1,0,0.1,0c0.3,0,0.5,0,0.8,0c1.2,0,2.5-0.1,3.7-0.3
		c1.5-0.2,2.8-0.2,4.2,0.3c4.2,1.6,8.5,3,12.2,5.6c0.3,0.2,0.7,0.5,1,0.8c0.1,0.1,0.1,0.1,0.2,0.2c0.6,0.6,1,1.4,0.9,2.2
		c0,0.4-0.2,0.8-0.5,1.2c0,0.1-0.1,0.2-0.2,0.2c-0.1,0.2-0.3,0.4-0.5,0.5c-0.1,0.1-0.1,0.1-0.2,0.2c-0.1,0-0.1,0.1-0.2,0.1
		c-0.1,0-0.1,0.1-0.2,0.1c-0.1,0-0.1,0.1-0.2,0.1c-0.1,0.1-0.3,0.1-0.4,0.1h0c-0.1,0-0.2,0-0.3,0c-0.1,0-0.2,0-0.3,0
		c-0.3-0.1-0.6-0.2-0.8-0.4c-0.1-0.1-0.2-0.1-0.2-0.2c-0.1,0-0.1-0.1-0.2-0.1c-0.1-0.1-0.2-0.2-0.3-0.3c-0.1-0.1-0.2-0.2-0.3-0.3
		c-0.1-0.1-0.2-0.2-0.3-0.3c-0.4-0.4-0.7-0.8-1.1-1.2c-0.3-0.3-0.5-0.5-0.8-0.8c-0.2-0.2-0.4-0.4-0.6-0.5c-0.3-0.3-0.6-0.5-0.9-0.7
		c-0.2-0.1-0.4-0.3-0.6-0.4c-0.6-0.4-1.3-0.8-1.9-1.1c-0.4-0.2-0.9-0.4-1.3-0.6c-0.2-0.1-0.3-0.1-0.5-0.2c-0.2-0.1-0.3-0.1-0.5-0.2
		c-0.3-0.1-0.7-0.2-1-0.4c-0.5-0.2-1.1-0.3-1.7-0.5c-0.2,0-0.4-0.1-0.6-0.1c-0.8-0.2-1.6-0.4-2.4-0.5c-0.4-0.1-0.7-0.1-1.1-0.2
		c-0.6-0.1-1.2-0.2-1.8-0.3c-0.5-0.1-1-0.1-1.4-0.2c-0.6-0.1-1.2-0.1-1.8-0.2c-0.5,0-1-0.1-1.5-0.1c-0.2,0-0.4,0-0.6-0.1
		c-0.2,0-0.4,0-0.6-0.1c-0.4,0-0.8-0.1-1.1-0.2c-0.4-0.1-0.7-0.1-1.1-0.2c-0.1,0-0.3-0.1-0.4-0.1c-0.6-0.2-1.1-0.4-1.6-0.7
		c-0.2-0.1-0.3-0.2-0.5-0.3c0,0,0,0,0,0c-0.6-0.4-1.1-1-1.6-1.7c-0.1-0.2-0.2-0.4-0.3-0.6c-0.4-0.7-0.8-1.5-1.3-2.1
		c-0.1-0.1-0.2-0.3-0.3-0.4c0-0.1-0.1-0.1-0.2-0.2c-0.2-0.2-0.4-0.4-0.7-0.6c-0.2-0.1-0.4-0.3-0.6-0.4c-0.1-0.1-0.2-0.1-0.4-0.2
		c-0.1,0-0.1-0.1-0.2-0.1c-0.1,0-0.2-0.1-0.3-0.1c-0.1,0-0.2-0.1-0.3-0.1c-0.1,0-0.2-0.1-0.3-0.1c-0.1,0-0.2,0-0.3-0.1
		c-0.2,0-0.4,0-0.6,0c-0.4,0-0.8,0-1.2,0.1c-0.2,0-0.4,0-0.6,0c-0.1,0-0.1,0-0.2-0.1c-0.1,0-0.1-0.1-0.2-0.1s-0.1-0.1-0.1-0.2
		c0-0.1,0-0.1-0.1-0.2c0-0.1,0-0.2,0-0.2v-0.1c-0.7,0-1.5,0-2.2,0c-3.8,0.6-7.6,1.2-11.4,1.8c-0.8,0-1.7,0.4-2.4-0.2
		c-0.1,0-0.2,0.1-0.2,0.1c0,0,0,0,0,0c-0.4,0.1-0.8-0.1-1.2-0.3c-0.9-0.6-1.8-1-2.6-1.3c-1-0.3-2-0.4-2.9-0.4c-0.1,0-0.3,0-0.4,0
		c-0.1,0-0.3,0-0.4,0c-0.1,0-0.3,0-0.4,0.1c-0.4,0.1-0.7,0.2-1,0.3c-0.1,0-0.2,0.1-0.3,0.1c-0.1,0-0.2,0.1-0.3,0.1
		c-0.2,0.1-0.5,0.2-0.7,0.3c-1.4,0.7-2.8,1.7-4.1,2.8c-0.4,0.3-0.8,0.8-1.3,1.1c0,0-0.1,0-0.1,0.1c0,0-0.1,0-0.2,0.1
		c-0.3,0.1-0.6,0-1-0.2c0,0-0.1-0.1-0.1-0.1c0,0-0.1-0.1-0.1-0.1c0-0.1-0.1-0.1-0.1-0.1c-0.1-0.1-0.1-0.2-0.1-0.3
		c-0.1-0.2-0.1-0.4,0-0.7c0-0.1,0-0.1,0-0.2c0.1-0.3,0.2-0.5,0.3-0.8c0-0.1,0.1-0.1,0.1-0.2c0-0.1,0.1-0.2,0.1-0.3
		c0.3-0.6,0.7-1.3,1-1.8c0.1-0.2,0.3-0.5,0.5-0.7c0,0,0,0,0-0.1c0.2-0.2,0.3-0.4,0.5-0.6c0.1-0.2,0.2-0.3,0.4-0.5c0,0,0,0,0,0
		c0.1-0.1,0.3-0.3,0.4-0.4c0.2-0.1,0.3-0.3,0.5-0.4c0.2-0.1,0.3-0.2,0.5-0.3c0.1-0.1,0.2-0.1,0.3-0.2c0.3-0.2,0.6-0.3,1-0.4
		c0.1-0.1,0.3-0.1,0.5-0.1c0.1,0,0.2-0.1,0.3-0.1c0.1,0,0.1,0,0.2,0c0.2,0,0.3-0.1,0.5-0.1c0.2,0,0.3,0,0.5,0l0.4,0c0,0,0.1,0,0.2,0
		c0,0,0,0,0,0c0.1,0,0.3,0,0.4,0c0.1,0,0.2,0,0.3,0c0.3,0,0.7,0,1-0.1c0.1,0,0.3,0,0.4-0.1c0.3-0.1,0.6-0.2,0.9-0.4
		c0.1,0,0.2-0.1,0.3-0.2c0.2-0.1,0.4-0.3,0.5-0.5c-0.3-0.2-0.7-0.5-1.1-0.6c-2.3-0.6-4.3-1.9-3.9-4.5c0.4-2.7-0.9-6.2,2.8-7.9
		c2.5-1.2,4.2-3.6,6.1-5.5c4-4.1,4.8-9.4,3.4-14.4c-1.5-5.6-4.7-10.4-10.9-12.2c-2-0.6-3.8-1.9-6-2.2c-0.8-0.1-1.5-0.6-1.6-1.3
		c-0.1-2.4-1.5-4.4-1.5-6.9c0-2.5,0-5.1-0.4-7.6c-1.1-7-2.4-14.1-2.5-21.1c-0.4-16.4-0.2-32.8,0-49.2c0-2.6-0.4-5.9,2.4-7.8
		c0.5-0.3,0.9-0.9,1.6-0.7c0.7,0.2,0.7,0.9,0.8,1.5c0.6,6,2.9,11.5,6,16.5c8.3,13.4,19.1,24.8,29.5,36.6c4.3,4.9,9.8,8.7,14.6,13
		c11.2,9.9,24.4,16.2,38.1,21.6c6.6,2.6,7,2.3,10-3.8c0.1-0.2,0.2-0.4,0.3-0.6c1.4-2.4,1.2-4.5-0.1-7.1c-4.7-9.7-8.6-19.7-10.5-30.4
		c-1.5-7.9-1.6-15.9-0.8-23.8c0.7-6.9,0-13.7-1.1-20.3c-1.8-11.1-8.1-20.1-16.2-27.7c-4.2-4-9.1-7.3-13.7-10.7
		c-9.6-7.2-19.7-13.2-31.3-16.3c-1.8-0.5-3.3-1.5-4.6-2.9c-4.6-4.7-9.5-9-15-12.6c-9.4-6.1-19.8-10.1-30.2-14.1
		c-8.2-3.1-13.3-1.8-18.9,4c-4,4.2-3.6,9.3-2.1,14c1.4,4.4,4.1,8.4,6.4,12.5c5.2,9.4,10.7,18.5,14.3,28.7c2.9,8.3,4.8,16.9,6.4,25.6
		c0.9,5.2,0.4,10.4,0.2,15.8c-2.5-4.7-5.3-9.2-8.7-13.3c-5.5-6.7-11.9-12.6-18.4-18.5c-7.1-6.4-14.9-12-23.3-16.6
		c-11.6-6.4-24.1-10.7-37-13.7c-2-0.5-4.4-0.4-5.7-2.2c-3.8-5.1-8.9-8.7-14.6-11.2c-8.5-3.7-17.6-5.4-26.9-6.3
		c-13-1.2-25.8-0.7-38,4.6c-6.6,2.8-12.2,6.7-16.4,12.7c-8.4,12-12.2,25.7-16.1,39.5c-1.6,5.8-2.3,12-5.1,17.4
		c-3.3,6.5-6.9,12.9-10.3,19.4c-0.5,1-1.2,1.8-2.1,2.6c-5,4.3-10.4,8.2-16,11.7c-9.4,5.9-18.8,11.8-25.2,21.3
		c-1,1.5-0.8,2.7-0.3,3.9c0.6,1.5,1.9,0.8,2.9,0.6c4.3-0.8,8.5-1.6,13-1c7,1,14.1,0.9,21.2,0.3c9.5-0.9,18.9-2.2,28.5-1.3
		c3.3,0.3,6.7,0.9,10,1c7.1,0.1,13.9-2,20.8-3.4c11.1-2.3,22.2-4.2,33.4-6.2c8.4-1.5,16.5-4.3,24.7-6.5c8.4-2.3,16.6-5.2,25.4-5.7
		c6.5-0.4,13-1.6,19-4c7.2-2.9,14.5-5.5,20.7-10.4c1-0.8,2.1-1.5,3.5-0.2c2.8,2.6,5.9,5,8.8,7.4c9.2,7.8,18.6,15.2,30.6,18.4
		c1.8,0.5,2.7,1.7,2.6,3.6c-0.2,2.3-0.5,4.7-0.5,7c-0.1,6-0.1,12.1,0,18.1c0.1,2.5-0.9,3.4-3.2,3c-3.8-0.6-7.6-1.3-11.2-2.9
		c-8.6-3.9-17.4-4.3-26.7-3.1c-6,0.8-11.8,2.1-17.8,2.9c-8.1,1-16.1,2.1-24.2,3c-4.9,0.5-9.9,0.5-14.6-0.9c-6-1.8-11.9-4.1-17.6-6.8
		c-7.6-3.5-15.6-5.7-23.9-5.6c-8.8,0.1-17.6,1-25.9,3.9c-7.6,2.5-15.2,3.6-23.2,3.5c-6.5-0.1-13,0.7-19.2,3.3
		c-2.6,1.1-2.9,2.5-1.9,4.7c1.2,2.5,3.3,4.4,5.2,6.3c0.8,0.8,2.6,1.5,3.1-0.6c0.9-3.1,3.4-4.1,6.1-4.5c8.8-1.2,17.5-2.5,26.2-4.5
		c10.3-2.4,20.5-4.6,31.2-3c7.6,1.1,15.3,1.4,22.5,4.5c3.6,1.5,7.4,3,11.2,4.1c9,2.5,18.1,2.3,27.3,0.6c11.4-2.1,22.9-3.8,34.4-5.6
		c6.5-1,13.2-1.4,19.5,0.7c12.6,4.2,25.5,6.6,38.6,8.1c4.5,0.5,8.9,2,12,5.9c4.4,5.4,2,16.3-4.5,18.6c-14.4,5.2-28.9,10-43.9,12.7
		c-7.8,1.4-15.6,2.2-23.4,0.6c-4.6-1-9.3-1.4-13.9-1.6c-10.3-0.5-20.5,0.4-30.8,1.7c-12.7,1.5-24.8,4.6-36.3,10.3
		c-4.7,2.3-9.1,5.4-13.6,8.1c-0.5,0.3-1,0.8-1.2,1.3c-0.3,0.6-0.4,1.5,0.3,2c0.6,0.5,1.2,0.1,1.7-0.2c4.8-3.3,10.1-5.1,15.7-6.7
		c12.2-3.5,10.1-5.2,14.9,6.7c3.6,9.2,8.5,17.4,17.1,22.6c4.5,2.8,8.3,5.9,10.6,10.7l11.1,0.1c1.8-0.8,3.6-1.5,5.5-1.6
		c0-0.1,0.1-0.2,0.1-0.2c0-0.1,0.1-0.1,0.1-0.2c0,0,0,0,0,0c0.1-0.1,0.2-0.1,0.2-0.2c0,0,0.1,0,0.1,0l0,0c0,0,0.1,0,0.1,0
		c0,0,0.1,0,0.1,0c0.1,0,0.1,0,0.2,0c0.1,0,0.1,0,0.2,0.1c0.1,0,0.1,0.1,0.2,0.1c0.1,0,0.2,0.1,0.2,0.2h0c11.3-0.6,22,0.9,31.3,8
		c2.4,1.9,4.9,3.4,8.3,2.5c5.8-1.6,11.8-1.8,17.8-2.6c12.1-1.6,24-1.2,35.8,1.9c3.3,0.9,6.7,1.5,9.7,3.6c5.5,3.8,8.4,9.5,11.6,15
		c0.4,0.8,0.5,2.1,1.8,1.4c0.9-0.5,1.2-1.4,0.6-2.6c-1.2-2.6-2.3-5.2-3.1-8c-0.7-2.4-2.8-4.8-1.6-7.2c1.8-3.5,4-6.8,7.2-9.4
		c4.9-4,9.7-8.2,14.4-12.4c7.9-7,16.9-12.2,26.4-16.5c1.7-0.8,2.6-0.5,3.4,1.5c1,2.6,2.7,5,4.1,7.5c0.5,0.8,0.9,1.8,2.1,1
		c0.9-0.7,0.8-1.5,0.2-2.4c-1.7-2.6-2.6-5.5-3.3-8.5c-0.8-3-1.5-6.7,1.2-8.9c5.4-4.4,10.3-9.3,15.4-14c5.8-5.3,11.6-10.4,20-11.6
		c3.9-0.5,6.5,0.8,9.2,2.9c1,0.7,1.7,1.7,2.8,2.3c1.5,0.9,1.9,2.2,1.1,3.9c-1,2.4-2.4,4.5-3.9,6.5c-10.2,13.6-20.2,27.3-29.6,41.5
		c-0.6,0.9-1.1,1.7-2.1,2.2c-8.5,4.6-15.8,10.8-23.1,16.9c-4.5,3.7-9.3,7-13.5,11c-7.5,7.1-14.1,15.1-22,21.8
		c-3.1,2.7-6,5.8-10.6,6.1c-8.4,0.6-16.7,0.6-25.1,0.5c-6.8-0.1-13.7-0.1-20.5,0.9c-6.5,0.9-13.1,1.8-19.6,2.2
		c-6.7,0.4-13.5,1.2-20.3,0.1c-1.6-0.3-3.3-0.1-4.9,0c-1.6,0.1-2.5,1-2.6,2.5c-0.1,1.5,0,2.9,2,3.2c1.6,0.2,3.1,1,4.7,1.1
		c15.1,1.6,30.3,0.3,45.3-0.9c4.6-0.4,9.1-1.4,13.6-2c0.9-0.1,2.3-0.6,2.5,0.9c0.1,1.2-1.3,1.4-2.2,1.9c-0.3,0.2-0.8,0.1-1.2,0.2
		c-6.5,1.6-13.4,1.6-19.9,3.4c-15.6,4.3-31.3,8-47,11.7c-7,1.6-13.9,3.8-20.9,5.3c-6.3,1.4-12.4,2-18.7,0.9
		c-0.2-0.1-0.4-0.2-0.7-0.3c-0.4-0.1-0.9-0.1-1.3-0.2c-5.1-0.1-10.1-0.6-14.8-2.7c-0.7-0.3-1.3-0.5-1.8-0.3c-0.1,0-0.1,0.1-0.2,0.1
		c0,0-0.1,0.1-0.1,0.1c0,0,0,0,0,0.1c-0.1,0.1-0.1,0.2-0.2,0.4c-0.1,0.2-0.1,0.5-0.1,0.9v0c6.3,3.4,12.8,6.4,19.5,8.7
		c4.8,1.6,9.8,1.7,14.7,0.4c4.6-1.2,8.7-3.5,13.1-5.1c8.3-2.9,16.8-4.7,25.4-6.7c13.1-3.1,26.2-6.3,39.4-9.6
		c7.2-1.8,14.4-4.1,20.8-7.9c2.8-1.6,5.4-2.4,8.6-2.4c4.4,0,8.7-0.5,12.8-2.4c11.2-5.3,20.7-12.9,30-20.9
		c6.4-5.6,12.3-11.6,19.5-16.2c9.9-6.3,18.7-14.1,25.8-23.3c11.3-14.8,21.8-30.2,33-45.1C443.5,233.3,442,226.7,436.1,222.7z
		 M238,124.7c-0.8,0.4-1.6,0.8-2.4,1.3c-0.8,0.4-1.6,0.9-2.4,1.3c-2,1.1-4,2.3-6,3.4c-0.8,0.5-1.6,0.9-2.4,1.4
		c-0.8,0.5-1.6,0.9-2.4,1.3c-8.4,4.6-17.5,6.1-27,7c-6.5,0.6-12.9,2.9-19.3,4.4c-4.1,1-8.2,2.1-12.3,3.2c-2.8,0.8-5.7,1.6-8.5,2.5
		c-1.2,0.4-2.4,0.7-3.7,1c-1.2,0.3-2.4,0.7-3.7,1c-0.6,0.2-1.2,0.3-1.8,0.5c-2.7,0.7-5.3,1.3-8,1.9c-0.4,0.1-0.8,0.2-1.2,0.2
		c-8.5,1.7-17,2.8-25.5,4.3c-7.8,1.4-15.5,3.6-23.5,2.9c-1.6-0.1-3.1-0.4-4.7-0.6c-1.6-0.2-3.1-0.5-4.7-0.5c-5.5,0-11,0.1-16.5,0.7
		c-10,1.1-20,2-30,0.5c-0.5-0.1-0.9-0.1-1.4-0.2c-0.5,0-0.9,0-1.4,0c-0.3,0-0.7,0-1,0c-0.3,0-0.7,0-1,0.1c-0.5,0-0.9,0.1-1.4,0.2
		c-0.4,0.1-0.8,0.1-1.3,0.2c-0.3,0.1-0.6,0.1-1,0.2c-0.9,0.2-1.8,0.4-2.8,0.6c0,0,0,0-0.1,0c-0.5,0.1-1,0.2-1.4,0.3c0,0,0,0,0,0
		c-0.5,0.1-1,0.2-1.5,0.3h0c0.3-0.3,0.5-0.7,0.8-1c0,0,0,0,0,0c0.5-0.7,1.1-1.4,1.6-2c0.9-1,1.7-2,2.5-3c0.2-0.3,0.5-0.6,0.8-0.8
		c0.3-0.4,0.7-0.7,1-1c0.1-0.1,0.3-0.3,0.4-0.4c0.3-0.3,0.6-0.6,0.9-0.9c0.4-0.4,0.8-0.7,1.2-1c0.6-0.5,1.3-1,1.9-1.5
		c0.3-0.2,0.7-0.5,1-0.7c0.3-0.2,0.7-0.5,1.1-0.7c0.3-0.2,0.7-0.4,1.1-0.7c8.3-4.7,16.7-9.5,23.9-15.8c0.3-0.3,0.6-0.5,0.9-0.8
		c0.6-0.6,1.2-1.1,1.7-1.7c0.2-0.2,0.3-0.4,0.5-0.5c0.4-0.4,0.7-0.8,1.1-1.2c0.3-0.3,0.6-0.7,0.8-1c0.5-0.6,1-1.3,1.5-1.9
		c1-1.3,1.9-2.7,2.8-4.2c0.2-0.3,0.4-0.7,0.6-1c0.3-0.4,0.5-0.9,0.8-1.3c0.1-0.1,0.1-0.3,0.2-0.4c0.2-0.4,0.4-0.8,0.6-1.2
		c0,0,0,0,0-0.1c0-0.1,0.1-0.1,0.1-0.2c0-0.1,0.1-0.1,0.1-0.2c0.2-0.3,0.3-0.7,0.5-1c0.1-0.1,0.1-0.3,0.2-0.4c0.3-0.7,0.6-1.3,0.9-2
		c0.2-0.6,0.5-1.2,0.7-1.7c0,0,0,0,0,0c0.2-0.4,0.3-0.8,0.5-1.1c0.1-0.2,0.2-0.4,0.2-0.6c0.2-0.5,0.4-0.9,0.5-1.4
		c0.2-0.5,0.4-1.1,0.6-1.7c0.3-0.7,0.5-1.5,0.8-2.2c0.1-0.4,0.2-0.8,0.4-1.1c0.2-0.5,0.4-1.1,0.5-1.7c0.2-0.6,0.4-1.1,0.5-1.7
		c3.5-11.3,6.1-22.8,9.9-34c0.1-0.3,0.2-0.7,0.3-1c0.1-0.3,0.2-0.6,0.4-1c0.2-0.7,0.5-1.3,0.8-2c0.1-0.2,0.2-0.5,0.3-0.7
		c0.3-0.7,0.6-1.3,0.9-2c0.1-0.2,0.2-0.5,0.3-0.7c0.2-0.4,0.4-0.7,0.5-1c0.2-0.4,0.4-0.8,0.6-1.1c0.1-0.1,0.1-0.2,0.2-0.4
		c0.2-0.3,0.4-0.7,0.6-1c0-0.1,0.1-0.1,0.1-0.2c0.2-0.4,0.5-0.8,0.7-1.2c0,0,0-0.1,0.1-0.1c0.2-0.4,0.5-0.8,0.8-1.2
		c0.2-0.3,0.4-0.7,0.7-1c0.3-0.5,0.6-0.9,1-1.4c0.8-1.2,1.7-2.3,2.7-3.4c0.4-0.5,0.8-1,1.2-1.4c0.3-0.4,0.6-0.7,1-1
		c0.6-0.6,1.2-1.2,1.9-1.7c0.1-0.1,0.2-0.2,0.4-0.3c0.2-0.2,0.5-0.4,0.7-0.5c0.1-0.1,0.3-0.2,0.4-0.3c0.1,0,0.1-0.1,0.2-0.1
		c0.2-0.2,0.5-0.3,0.8-0.5c0.8-0.5,1.6-1,2.4-1.4c0.4-0.2,0.8-0.4,1.3-0.6c1.7-0.8,3.5-1.5,5.3-2.1c0.4-0.1,0.9-0.3,1.4-0.4
		c1.4-0.4,2.8-0.8,4.2-1.1c9.3-2,18.8-3.2,28.2-2.3c1.2,0.1,2.4,0.2,3.6,0.4c0.1,0,0.1,0,0.2,0c0.5,0.1,1.1,0.1,1.6,0.2
		c0.1,0,0.2,0.1,0.4,0.1c0.5,0.1,1,0.2,1.5,0.3c0.6,0.1,1.2,0.2,1.8,0.3c1.2,0.2,2.4,0.5,3.6,0.8c0.6,0.1,1.3,0.3,1.9,0.5
		c0.5,0.1,1.1,0.3,1.6,0.4c1.8,0.5,3.5,1.1,5.3,1.7c0.6,0.2,1.2,0.4,1.7,0.6c0.6,0.2,1.2,0.4,1.7,0.7c1.1,0.5,2.3,1,3.4,1.5
		c0.2,0.1,0.5,0.2,0.7,0.4c0.3,0.2,0.6,0.3,0.8,0.5c0,0,0,0,0.1,0c0.2,0.1,0.3,0.2,0.5,0.3c0.2,0.1,0.5,0.3,0.7,0.4
		c0.3,0.2,0.6,0.5,1,0.7c0.3,0.2,0.6,0.5,0.9,0.7c0.3,0.2,0.6,0.5,0.9,0.8c1.5,1.3,3,2.8,4.5,4.2c1.3,1.2,2.7,2.4,4.1,3.3
		c0.3,0.2,0.6,0.4,0.9,0.5c0.2,0.1,0.4,0.2,0.6,0.3c0.2,0.1,0.5,0.2,0.7,0.3c0.1,0,0.2,0.1,0.3,0.1c0.2,0.1,0.3,0.1,0.5,0.1
		c0.4,0.1,0.8,0.2,1.2,0.2c0.2,0,0.5,0,0.7,0c0.3,0,0.6,0.1,0.9,0.1c0.2,0,0.3,0.1,0.5,0.1c0.1,0,0.3,0.1,0.4,0.1
		c0.3,0.1,0.6,0.2,0.9,0.3s0.6,0.2,0.9,0.3c10.1,2.4,19.8,6.1,29.1,10.7c0.2,0.1,0.4,0.2,0.6,0.3c0.2,0.1,0.4,0.2,0.6,0.3
		c0.2,0.1,0.4,0.2,0.5,0.4l0.1,0.1c0,0,0.1,0.1,0.1,0.2c0.1,0.1,0.1,0.2,0.2,0.3c0.2,0,0.4,0,0.5,0.1c0,0,0.1,0,0.1,0
		c0.1,0,0.2,0.1,0.2,0.1c0.1,0.1,0.3,0.2,0.4,0.4c5.5,2.5,10.5,5.8,15.2,9.5c1.1,0.8,2.1,1.7,3.2,2.6c0.2,0.2,0.5,0.4,0.7,0.6
		c0.7,0.6,1.4,1.2,2.1,1.8c0.2,0.1,0.4,0.3,0.5,0.5c1,0.9,2,1.7,3,2.6c1,0.9,2,1.8,3.1,2.8c0.7,0.6,1.3,1.2,2,1.9
		c0.1,0.1,0.2,0.2,0.3,0.2c0,0,0.1,0,0.1,0.1c0,0,0,0,0,0c0.5,0.5,1,1,1.5,1.5c0.5,0.5,1.1,1,1.6,1.6c0.4,0.4,0.8,0.8,1.2,1.2
		c0.7,0.7,1.5,1.5,2.2,2.2c1,1,1.9,2,2.8,3c6.7,7.1,10.2,15.8,11.5,25.4c0.4,2.9,0.8,5.9,1.3,9.7c-1.1-1.3-2-2.5-2.7-3.7
		c-0.1-0.3-0.3-0.5-0.5-0.8c-0.3-0.5-0.6-1-0.8-1.5c-0.2-0.4-0.5-0.9-0.7-1.3c-0.3-0.5-0.6-1.1-1-1.6c-0.1-0.2-0.2-0.4-0.4-0.6
		c-0.1-0.1-0.1-0.2-0.2-0.3c-0.1-0.1-0.1-0.2-0.2-0.2c-0.3-0.3-0.6-0.6-1-0.9c-0.1-0.1-0.2-0.1-0.3-0.2c-5.7-3.1-11.8-5.3-18.3-5.5
		c-0.3,0-0.5,0-0.8,0c-0.4,0-0.8,0-1.2,0c-0.3,0-0.5,0-0.8,0.1c-0.1,0-0.2,0-0.2,0c-0.3,0-0.6,0.1-0.9,0.1c-0.5,0.1-1.1,0.1-1.6,0.2
		c-0.3,0-0.5,0.1-0.8,0.2c-0.1,0-0.2,0-0.4,0.1c-0.2,0-0.5,0.1-0.7,0.2c-0.2,0-0.3,0.1-0.5,0.1c-0.2,0.1-0.4,0.1-0.6,0.2
		c-0.2,0-0.4,0.1-0.6,0.2c-0.2,0.1-0.3,0.1-0.5,0.2c-0.5,0.2-1,0.3-1.4,0.5c-0.2,0.1-0.5,0.2-0.7,0.3c-0.2,0.1-0.5,0.2-0.7,0.3
		c-0.1,0-0.2,0.1-0.3,0.1c-0.1,0.1-0.2,0.1-0.4,0.2c-0.5,0.2-0.9,0.4-1.4,0.7C239,124.1,238.5,124.4,238,124.7z M280.8,152.2
		c0,0,0,0.1,0,0.1c0,0,0,0.1,0,0.1c0,0,0,0.1-0.1,0.1c0,0.1-0.1,0.1-0.1,0.1c-0.1,0.1-0.1,0.2-0.2,0.3c0,0,0,0-0.1,0.1
		c0,0,0,0-0.1,0.1c-1.4,1.1-3.5-1.3-5.4-2c-1.1-0.4-2.1-0.8-3.1-1.2c-0.5-0.2-1-0.5-1.5-0.7c-0.5-0.2-1-0.5-1.5-0.7
		c-1.3-0.7-2.6-1.4-3.9-2.1c-0.5-0.3-1-0.6-1.5-0.9c-0.2-0.1-0.5-0.3-0.7-0.4c-0.5-0.3-1.1-0.7-1.6-1c-0.6-0.4-1.2-0.8-1.8-1.2h0
		c-0.6-0.4-1.2-0.8-1.8-1.3c-0.6-0.4-1.2-0.9-1.8-1.3c-0.6-0.5-1.2-0.9-1.8-1.4c-1.2-0.9-2.3-1.8-3.4-2.8c0,0,0,0,0,0
		c-0.9-0.7-1.7-1.4-2.5-2.2c-0.8-0.7-1.7-1.4-2.5-2.2c-1.5-1.3-2.9-2.5-4.4-3.8c0,0-0.1,0-0.1-0.1c-0.2-0.2-0.4-0.4-0.5-0.6
		c0,0,0-0.1,0-0.1c0-0.1-0.1-0.1-0.1-0.2c0-0.1,0-0.1,0-0.2c0-0.2,0.1-0.4,0.3-0.6c0.1-0.1,0.2-0.2,0.3-0.2c0.1,0,0.2-0.1,0.2-0.1
		c0.1,0,0.2-0.1,0.3-0.1c0.3-0.1,0.6-0.2,0.9-0.3c0.3-0.1,0.7-0.2,1-0.3c0.6-0.2,1.3-0.5,1.9-0.7c0.3-0.1,0.7-0.3,1-0.4
		c0.9-0.3,1.7-0.6,2.6-0.8c0.2,0,0.4-0.1,0.6-0.1c0.2,0,0.3-0.1,0.5-0.1c0.2,0,0.3,0,0.4-0.1c0.4,0,0.8-0.1,1.2,0
		c1.3,0.1,2.5,0.2,3.7,0.3c0.5,0,1,0.1,1.4,0.2c0.4,0,0.7,0.1,1.1,0.1c0.5,0.1,0.9,0.1,1.4,0.2c0.6,0.1,1.2,0.2,1.9,0.3
		c0.5,0.1,0.9,0.2,1.4,0.3c0.5,0.1,1,0.2,1.5,0.3c0.5,0.1,1,0.2,1.5,0.4c0.6,0.2,1.3,0.3,1.9,0.5c0.1,0,0.2,0.1,0.3,0.1
		c0.1,0,0.2,0.1,0.3,0.1c0.6,0.3,1,0.8,1.5,1.2c0.1,0.1,0.2,0.2,0.3,0.3c0.2,0.2,0.4,0.3,0.5,0.5c0.2,0.2,0.5,0.5,0.7,0.7
		c0.4,0.5,0.8,0.9,1.2,1.4c0.2,0.3,0.5,0.6,0.7,0.9c0.1,0.1,0.1,0.2,0.2,0.3c0.1,0.2,0.2,0.3,0.3,0.5c0.1,0.1,0.1,0.2,0.2,0.3
		c0.2,0.3,0.4,0.6,0.6,0.9c0.1,0.3,0.3,0.5,0.4,0.8c0.1,0.2,0.2,0.4,0.3,0.6c0.2,0.5,0.5,1,0.7,1.5c0.1,0.3,0.3,0.6,0.4,0.9
		c0.4,0.9,0.7,1.7,1,2.6c0,0,0,0,0,0c0.2,0.4,0.3,0.9,0.4,1.3c0.1,0.4,0.2,0.7,0.3,1.1c0.1,0.3,0.2,0.7,0.3,1
		c0.2,0.5,0.3,1.1,0.5,1.6c0.1,0.3,0.2,0.7,0.3,1l0.6,2c0.1,0.5,0.4,1.1,0.6,1.6c0.1,0.2,0.1,0.3,0.2,0.5c0.2,0.4,0.4,0.8,0.5,1.2
		c0,0.2,0.1,0.4,0.1,0.5C280.8,151.6,280.8,151.9,280.8,152.2z M293.4,183.9c0,0.1,0,0.1,0,0.2c-0.1,0.3-0.2,0.5-0.3,0.7
		c-0.1,0.2-0.2,0.3-0.3,0.4c-0.3,0.3-0.6,0.6-1,0.8c-0.1,0-0.2,0.1-0.3,0.1c-0.6,0.3-1.4,0.5-2.1,0.7c-0.2,0.1-0.4,0.1-0.6,0.1
		c-0.2,0.1-0.4,0.1-0.7,0.2c-0.1,0-0.2,0.1-0.3,0.1c-0.1,0-0.2,0.1-0.3,0.1c-0.4,0.2-0.7,0.2-1,0.2c-0.1,0-0.1,0-0.2-0.1
		c-0.3-0.1-0.4-0.3-0.6-0.5c-0.1-0.1-0.2-0.2-0.2-0.4c-0.1-0.3-0.2-0.6-0.4-0.9c-0.1-0.3-0.2-0.6-0.3-0.8c-3.1-6.1-1.8-12.6-1.5-19
		c0.3-5.4,1.4-10.6,0.5-16.1c-0.6-3.3-0.3-6.8-0.1-10.1c0.1-1.1,0.1-2.2,0-3.3c0-0.2,0-0.5,0-0.7c0-0.3,0-0.7-0.1-1c0,0,0-0.1,0-0.1
		c0,0,0,0,0,0c0-0.2,0-0.4,0-0.7c0-0.1,0-0.2,0-0.3c0-0.2,0-0.5-0.1-0.7c0-0.1,0-0.2,0-0.3c0-0.4-0.1-0.8-0.2-1.2
		c0-0.4-0.1-0.8-0.2-1.2c-0.1-0.5-0.1-1-0.2-1.5c-0.1-0.6-0.2-1.1-0.3-1.7s-0.2-1.1-0.3-1.7c-0.1-0.4-0.2-0.8-0.3-1.2
		c-0.8-3.5-0.1-7,0.5-10.3c1.5-7.3-0.7-14.1-1.6-21.2c-0.1-1-0.3-2-0.4-3c-0.1-0.5-0.2-1-0.3-1.5c-0.6-3-1.3-5.9-2.2-8.7
		c-0.1-0.4-0.3-0.8-0.4-1.2c-0.3-0.9-0.6-1.8-0.9-2.7c-0.2-0.4-0.3-0.8-0.4-1.2c-0.4-1-0.8-2-1.2-2.9c-0.5-1.3-1.1-2.7-1.7-4
		c0-0.1,0-0.1-0.1-0.2c-0.1-0.1-0.1-0.3-0.2-0.4c-0.1-0.2-0.1-0.3-0.2-0.5c-0.3-0.6-0.6-1.3-0.9-1.9c0,0,0-0.1-0.1-0.1
		c-0.3-0.7-0.7-1.4-1-2.1c-0.8-1.7-1.7-3.3-2.6-5c-0.5-0.9-0.9-1.8-1.4-2.7c-0.5-0.9-0.9-1.7-1.4-2.6c-0.5-0.9-0.9-1.7-1.4-2.6
		c-1.7-3.1-3.4-6.3-5-9.5c-0.3-0.6-0.6-1.2-0.9-1.7c-0.3-0.6-0.6-1.2-0.8-1.7c-0.3-0.6-0.5-1.1-0.8-1.7c-0.3-0.6-0.5-1.2-0.7-1.8
		c-0.1-0.3-0.2-0.6-0.3-0.9c-0.1-0.3-0.2-0.6-0.3-0.9c-0.2-0.6-0.4-1.2-0.5-1.8c-0.1-0.3-0.1-0.6-0.2-0.9c-0.2-0.9-0.4-1.9-0.5-2.8
		c0-0.5-0.1-1,0-1.5c0-0.3,0.1-0.5,0.2-0.8c0.1-0.2,0.1-0.4,0.2-0.6c0.1-0.2,0.2-0.4,0.3-0.6c0.1-0.1,0.1-0.3,0.2-0.4
		c0.1-0.1,0.1-0.2,0.2-0.4c0.2-0.2,0.3-0.5,0.5-0.7c0.2-0.2,0.4-0.4,0.6-0.6c0.1-0.1,0.3-0.3,0.4-0.4c0.3-0.3,0.6-0.6,0.9-0.8
		c0.1-0.1,0.2-0.2,0.4-0.3c0.2-0.1,0.3-0.2,0.5-0.3c0.1-0.1,0.2-0.2,0.4-0.2c0.2-0.1,0.4-0.2,0.5-0.3c0.1-0.1,0.3-0.1,0.4-0.2
		c0.1-0.1,0.2-0.1,0.3-0.2c0.3-0.1,0.5-0.3,0.8-0.4c0.2-0.1,0.5-0.2,0.7-0.3c0.2-0.1,0.5-0.2,0.8-0.3c0.2-0.1,0.4-0.1,0.5-0.2
		c0,0,0.1,0,0.1,0c0.2,0,0.3-0.1,0.5-0.1c0.4-0.1,0.8-0.1,1.2-0.2c0.2,0,0.3,0,0.5,0c0.5,0,0.9,0,1.3,0.1c0.4,0.1,0.7,0.2,1.1,0.2
		c0.7,0.2,1.4,0.3,2.1,0.5h0c0.7,0.2,1.4,0.4,2.1,0.6c1.1,0.3,2.1,0.6,3.2,0.9h0c0,0,0,0,0,0c0,0,0,0,0,0h0c0.5,0.2,1.1,0.3,1.6,0.5
		c0.1,0,0.1,0,0.2,0.1c0,0,0,0,0,0c0.4,0.1,0.8,0.2,1.2,0.4c0.8,0.2,1.5,0.5,2.2,0.8c0.8,0.3,1.5,0.5,2.2,0.8c0.8,0.3,1.7,0.6,2.5,1
		c0.8,0.3,1.7,0.7,2.5,1c0.8,0.4,1.7,0.7,2.5,1.1c1.6,0.8,3.2,1.6,4.8,2.4c0.1,0,0.2,0.1,0.3,0.1c0.2,0.1,0.4,0.2,0.5,0.3
		c0.1,0,0.2,0.1,0.2,0.2c0.1,0.1,0.2,0.1,0.2,0.2c0.1,0.1,0.3,0.3,0.4,0.5c0,0.1,0.1,0.2,0.1,0.3l0-0.1l0,0h0c0,0,0,0,0.1,0
		c0.5,0.2,1,0.4,1.4,0.6v0h0c1.4,0.9,2.7,1.7,4.1,2.6c0.6,0.4,1.1,0.8,1.7,1.2c0.2,0.2,0.5,0.3,0.7,0.5c0.4,0.3,0.8,0.6,1.3,1
		c0,0,0.1,0,0.1,0.1c0.4,0.3,0.8,0.6,1.2,0.9c0.1,0.1,0.3,0.2,0.4,0.3c0.2,0.2,0.5,0.4,0.7,0.6c0.4,0.3,0.8,0.7,1.2,1
		c0.6,0.5,1.1,1,1.7,1.5c0.3,0.3,0.7,0.6,1,0.9c0.4,0.4,0.9,0.9,1.3,1.3c0.1,0.1,0.3,0.3,0.4,0.5c0.1,0.1,0.1,0.2,0.2,0.3
		c0,0,0,0.1,0.1,0.1c0,0,0,0.1,0,0.1c0,0,0,0,0,0c0.1,0.4-0.1,0.8-0.9,0.9c-4.7,0.6-7.6,4-10.9,6.7c-0.1,0.1-0.2,0.2-0.3,0.3
		c-0.2,0.1-0.3,0.3-0.5,0.4c-0.2,0.2-0.4,0.4-0.6,0.6c-0.2,0.2-0.4,0.4-0.6,0.6c-0.4,0.4-0.7,0.8-1.1,1.1c-0.6,0.6-1.1,1.2-0.9,1.9
		c0,0.1,0,0.2,0.1,0.2c0.1,0.2,0.2,0.3,0.3,0.5c0.2,0.3,0.5,0.5,0.7,0.6c0.1,0,0.2,0.1,0.2,0.1c0,0,0.1,0,0.1,0
		c0.6,0.1,1.2-0.2,1.9-0.7c4.4-2.9,8.5-6.2,12.6-9.6c0.8-0.7,1.4-1.3,2.2-1.1c0.3,0.1,0.7,0.3,1,0.8c0.4,0.4,0.8,0.7,1.3,0.8
		c0.1,0,0.2,0.1,0.3,0.1c0.3,0.1,0.5,0.1,0.8,0.2c0.1,0,0.2,0,0.3,0.1c0.2,0,0.3,0.1,0.5,0.1c0.5,0.1,1,0.3,1.5,0.6h0
		c0.4,0.1,0.8,0.1,1.2,0.2c0.2,0,0.4,0.1,0.6,0.1c0.7,0.1,1.5,0.3,2.2,0.5c0.1,0,0.3,0.1,0.4,0.1c0.9,0.2,1.8,0.5,2.6,0.8
		c0.3,0.1,0.5,0.2,0.8,0.3c0.3,0.1,0.7,0.2,1,0.4c0.4,0.2,0.8,0.3,1.2,0.5c0.3,0.1,0.6,0.2,0.9,0.4c1.7,0.8,3.4,1.7,5,2.6
		c0.6,0.4,1.2,0.7,1.8,1.1c0.6,0.4,1.2,0.8,1.8,1.2c0.4,0.3,0.8,0.5,1.2,0.8c0.8,0.6,1.6,1.1,2.4,1.7c3.1,2.1,6.2,4.2,9.3,6.4
		c0.5,0.4,1.1,0.8,1.7,1.2c0.8,0.6,1.6,1.2,2.4,1.8c0.6,0.5,1.2,0.9,1.7,1.4c0.6,0.5,1.1,0.9,1.7,1.4h0c2,1.7,4.1,3.4,5.8,5.4v0
		c0.3,0.3,0.7,0.7,1,1c1,1,1.9,2.1,2.8,3.1c0.4,0.5,0.8,0.9,1.1,1.4c0.1,0.1,0.2,0.3,0.3,0.4c0.4,0.5,0.7,1,1.1,1.5
		c0.2,0.3,0.5,0.7,0.7,1c0.1,0.1,0.2,0.3,0.3,0.4c0.2,0.3,0.4,0.6,0.5,0.9c1.7,2.8,3.1,5.7,4.3,8.7c0.2,0.4,0.3,0.9,0.4,1.3
		c0,0.1,0.1,0.2,0.1,0.3c0.1,0.4,0.2,0.8,0.3,1.2c0,0,0,0.1,0,0.1c0.1,0.4,0.2,0.8,0.3,1.2c0.1,0.3,0.1,0.5,0.2,0.8
		c0.1,0.3,0.1,0.7,0.2,1c0.1,0.3,0.1,0.7,0.2,1c0,0,0,0.1,0,0.1c0,0.2,0.1,0.4,0.1,0.7c0.1,0.9,0.2,1.9,0.3,2.8c0,0.2,0,0.4,0,0.6
		c0,0.5,0.1,0.9,0.1,1.4c0.3,8.3,0.5,16.6,0,24.9c0,0.6-0.1,1.2-0.1,1.8c0,0.7,0,1.3,0,2c0,0.3,0,0.5,0,0.8c0,0.6,0,1.2,0.1,1.7
		c0,0.1,0,0.1,0,0.2c0,0.5,0.1,1,0.1,1.5c0,0.5,0.1,0.9,0.1,1.4c0.1,0.5,0.1,0.9,0.2,1.4c0.1,0.6,0.2,1.1,0.3,1.7
		c0,0.3,0.1,0.6,0.2,0.9c0.1,0.4,0.2,0.8,0.2,1.2c0.1,0.4,0.2,0.8,0.3,1.2c0.1,0.4,0.2,0.8,0.3,1.2c0.2,0.7,0.3,1.4,0.5,2
		c0.2,0.7,0.4,1.4,0.6,2c0.2,0.7,0.4,1.4,0.6,2c0.3,1,0.7,2,1,3c0,0,0,0,0,0c0.6,1.7,1.3,3.3,2,5c0.7,1.6,1.4,3.3,2.2,4.9
		c0.1,0.3,0.3,0.6,0.4,1s0.3,0.6,0.4,1c0.1,0.3,0.2,0.7,0.3,1c0.1,0.2,0.1,0.3,0.2,0.5c0.2,0.5,0.3,1,0.4,1.5
		c0.1,0.6,0.3,1.2,0.4,1.8c0.1,0.4,0.1,0.9,0.2,1.3c0,0.4,0.1,0.8,0.1,1.2c0.1,0.8,0.1,1.6,0.2,2.5c0,1,0,2.1,0,3.1
		c0,0.2,0,0.3,0,0.4c0,0.1,0,0.2,0,0.4c0,0,0,0,0,0c0,0.1,0,0.2-0.1,0.3c0,0.1-0.1,0.2-0.1,0.3c0,0.1-0.1,0.1-0.1,0.2
		c0,0-0.1,0.1-0.1,0.2c0,0.1-0.1,0.1-0.2,0.2s-0.1,0.1-0.2,0.1c-0.1,0-0.1,0.1-0.2,0.1c-0.1,0-0.1,0-0.2,0.1c-0.3,0-0.6,0-0.9-0.1
		c-0.3-0.1-0.6-0.2-1-0.4c-1.5-0.7-2.9-1.4-4.4-2.1c-2.2-1-4.4-2.1-6.5-3.1c-1.5-0.7-2.9-1.3-4.4-2c-0.7-0.3-1.5-0.6-2.2-0.9
		c-10.7-4.3-18.9-11.9-27.8-18.7c-0.3-0.3-0.7-0.5-1-0.8c0,0-0.1,0-0.1-0.1c-0.4-0.3-0.7-0.6-1.1-0.9c-0.4-0.3-0.8-0.7-1.3-1.1
		c-0.5-0.5-1.1-1-1.6-1.5c0,0,0,0,0,0c-0.4-0.4-0.9-0.8-1.3-1.3c-1-1-2.1-2.1-3.1-3.2c-0.9-1-1.7-1.9-2.5-2.9
		c-0.6-0.7-1.3-1.5-1.9-2.2c-0.6-0.8-1.3-1.5-1.9-2.3c-0.6-0.8-1.2-1.5-1.9-2.3c-0.6-0.8-1.2-1.5-1.9-2.3c-0.9-1.1-1.9-2.2-2.9-3.3
		c-0.5-0.5-1-1.1-1.5-1.6c-5.5-6-10.5-12.5-14.6-19.5c-0.3-0.5-0.5-0.9-0.8-1.4c-0.2-0.3-0.3-0.6-0.5-0.9c-0.2-0.3-0.3-0.7-0.5-1
		c-0.2-0.5-0.4-0.9-0.6-1.3c-0.1-0.2-0.2-0.5-0.3-0.7c-0.1-0.3-0.2-0.5-0.3-0.8c-0.1-0.2-0.2-0.5-0.3-0.8c-0.1-0.3-0.2-0.7-0.3-1
		c-0.1-0.3-0.2-0.7-0.3-1c-0.1-0.3-0.2-0.7-0.3-1c-0.1-0.3-0.2-0.7-0.2-1c0-0.1,0-0.2-0.1-0.3c0-0.2-0.1-0.5-0.1-0.8
		c0-0.1,0-0.3-0.1-0.4c0-0.3-0.1-0.7-0.1-1.1c0-0.1,0-0.1,0-0.2c0-0.3-0.1-0.5-0.1-0.8c-0.1-0.8-0.1-1.7-0.1-2.5c0-0.3,0-0.5,0-0.8
		c0-0.5,0.1-0.9,0.1-1.4c0-0.1,0-0.2,0.1-0.4c0-0.1,0-0.1,0-0.2c0-0.1,0.1-0.2,0.1-0.3c0-0.1,0.1-0.2,0.1-0.3
		c0.1-0.1,0.1-0.2,0.2-0.3c0,0,0,0,0.1-0.1c0,0,0,0,0,0c0-0.1,0.1-0.1,0.2-0.2c0.1-0.1,0.2-0.1,0.3-0.2c0.2-0.1,0.4-0.2,0.7-0.3
		c2.2-0.9,4.5-1.7,6.8-2.5c0,0,0,0,0.1-0.1h0c0,0,0,0,0,0c0,0,0,0,0,0s0,0,0,0c0.1,0,0.1-0.1,0.2-0.2c0,0,0,0.1-0.1,0.1v0
		c0,0-0.1,0-0.1,0c0,0,0,0-0.1,0.1c0,0,0,0-0.1,0h0v0l0,0c-0.1,0.1-0.2,0.3-0.3,0.5c-0.1,0.2-0.2,0.4-0.3,0.6
		c-0.4,0.7-0.7,1.3-0.9,2c-0.1,0.3-0.2,0.6-0.3,0.9c-0.1,0.2-0.1,0.4-0.2,0.6c0,0.2-0.1,0.3-0.1,0.5c0,0.2-0.1,0.5-0.2,0.7
		c-0.1,0.4-0.1,0.8-0.2,1.2c0,0.4-0.1,0.7-0.1,1.1c0,0.1,0,0.2,0,0.3c0,0.3,0,0.5,0,0.8c0,0.4,0,0.8,0,1.2v0.1
		c0,0.7,0.1,1.4,0.2,2.1c0,0,0,0,0,0c0.1,0.7,0.2,1.4,0.4,2.2c0.2,0.7,0.3,1.4,0.5,2.2c0.1,0.4,0.2,0.7,0.3,1.1
		c0.3,1.2,0.8,2.3,1.4,3.4c0,0.1,0.1,0.1,0.1,0.2c0,0.1,0.1,0.2,0.2,0.2c0.1,0.1,0.1,0.1,0.2,0.2c0,0,0.1,0.1,0.1,0.1
		c0,0,0.1,0,0.1,0.1c0.1,0.1,0.2,0.1,0.3,0.1c0.1,0,0.3,0,0.4,0c0.1,0,0.2-0.1,0.2-0.2c0.1-0.1,0.2-0.2,0.2-0.4
		c0.1-0.2,0.2-0.4,0.3-0.5c0.1-0.1,0.2-0.3,0.2-0.4c0,0,0.1-0.1,0.1-0.1c0,0,0-0.1,0.1-0.1c0.1-0.1,0.2-0.2,0.2-0.3
		c0.1-0.1,0.2-0.3,0.4-0.4c0.3-0.2,0.5-0.4,0.8-0.6c0.4-0.3,0.9-0.5,1.4-0.7c0.3-0.1,0.7-0.2,1-0.3c0.4-0.1,0.8-0.2,1.3-0.4
		c0.1,0,0.2-0.1,0.3-0.1c0.3-0.1,0.6-0.2,0.9-0.3c0.3-0.1,0.7-0.2,1-0.3c0.3-0.1,0.5-0.1,0.8-0.2c0.2-0.1,0.5-0.1,0.7-0.2
		c0.6-0.1,1.1-0.2,1.7-0.4c1.9-0.4,3.3,0,5.1,1.1c0.4,0.3,0.8,0.5,1.2,0.8c0.4,0.2,0.7,0.5,1.1,0.8c0.1,0.1,0.2,0.2,0.3,0.2
		c0.3,0.2,0.6,0.5,0.9,0.7c0.3,0.2,0.5,0.4,0.8,0.7c0.2,0.1,0.3,0.3,0.5,0.5c0.3,0.2,0.5,0.5,0.8,0.8c0.2,0.2,0.4,0.4,0.6,0.6
		c0,0,0,0,0,0c0,0,0,0,0,0c0,0,0.1,0,0.1,0.1c0.2,0.2,0.4,0.4,0.5,0.6c0.4,0.5,0.8,1,1.2,1.5c0.2,0.2,0.4,0.5,0.6,0.8
		c0.4,0.5,0.8,1,1.1,1.5c0.2,0.3,0.4,0.5,0.5,0.8c0.1,0.1,0.2,0.3,0.3,0.4c0.1,0.1,0.2,0.3,0.2,0.4c0.4,0.6,0.7,1.1,1,1.7
		c0.1,0.2,0.3,0.5,0.4,0.8c0.6,1.1,1.2,2.3,1.7,3.5c0.2,0.4,0.3,0.9,0.6,1.3c0.4,0.9,0.9,1.8,1.5,2.3c0.1,0,0.2,0.1,0.2,0.1
		c0.3,0.1,0.6,0.2,1,0c0.1,0,0.2-0.1,0.3-0.1c0.1,0,0.1-0.1,0.2-0.1c0.1,0,0.1-0.1,0.2-0.2c0-0.1,0.1-0.1,0.1-0.2
		c0-0.1,0.1-0.2,0.1-0.2c0-0.1,0-0.2,0-0.3c0-0.5-0.2-1.1-0.4-1.7c-0.2-0.6-0.4-1.2-0.5-1.7c-0.2-1.6-0.8-3.2-1.1-4.8
		c-0.1-0.4-0.1-0.8,0-1.1c0-0.1,0.1-0.2,0.1-0.3c0,0,0-0.1,0.1-0.1c0,0,0.1-0.1,0.1-0.1c0.1,0,0.2-0.1,0.3-0.1c0.1,0,0.2,0,0.2,0
		c0.1,0,0.1,0,0.2,0.1c0.1,0,0.2,0.1,0.3,0.1c0.1,0,0.2,0.1,0.3,0.2c4.6,3,9.7,3.4,14.9,3.8c0.1,0,0.2,0,0.3,0c0.1,0,0.2,0,0.3,0.1
		c0.1,0,0.2,0,0.3,0.1c0.1,0,0.2,0,0.3,0.1c0.1,0,0.3,0.1,0.4,0.2c0.3,0.1,0.6,0.2,0.8,0.4c0.3,0.1,0.5,0.3,0.8,0.5
		c0.2,0.1,0.5,0.3,0.7,0.5c0.8,0.6,1.5,1.2,2.3,1.8c0.7,0.6,1.6,1.4,2.4,1c0.1,0,0.2-0.1,0.2-0.1c0,0,0.1-0.1,0.1-0.1
		c0.2-0.2,0.2-0.5,0.1-0.8c0-0.1-0.1-0.2-0.1-0.2c-0.1-0.2-0.2-0.5-0.3-0.7c0-0.1,0-0.1,0-0.2c0-0.5,0.1-1.1,0.3-1.4
		c0.2-0.2,0.3-0.4,0.4-0.6c0.1-0.2,0.3-0.4,0.4-0.7c0.4-0.7,0.8-1.3,1.1-2c0.1-0.2,0.2-0.5,0.3-0.7c0.2-0.5,0.4-0.9,0.6-1.4
		c0.1-0.3,0.3-0.6,0.4-0.9c0.1-0.4,0.3-0.7,0.4-1.1c0.1-0.3,0.3-0.7,0.4-1.1c0.3-0.9,0.7-1.8,1-2.7c0.1-0.3,0.2-0.7,0.4-1
		c0.2-0.6,0.5-1.3,0.8-1.9c0.1-0.3,0.3-0.6,0.4-1c0,0,0,0,0,0c0.3,0.5,0.6,1,0.8,1.5c0.1,0.1,0.1,0.2,0.1,0.4c0,0.1,0,0.1,0.1,0.2
		c0,0.2,0.1,0.3,0.2,0.5c0,0.2,0.1,0.4,0.1,0.6c0.1,0.4,0.1,0.8,0.1,1.3c0.2,5.3,0.4,10.6,0.6,15.9v0.2c0,0.1,0,0.2,0,0.3
		c0,0.1,0,0.2,0,0.2c0,0.3,0,0.5,0.1,0.8c0,0,0,0.1,0.1,0.1c0,0,0,0.1,0.1,0.1c0,0,0.1,0.1,0.1,0.1c0,0,0.1,0,0.1,0c0,0,0.1,0,0.1,0
		c0.1,0,0.2,0,0.2,0h0.1c0.1,0,0.1,0,0.2,0c0,0,0,0,0.1,0c0,0,0,0,0,0c0,0,0.1,0,0.1-0.1c0,0,0.1,0,0.1-0.1c0.1,0,0.1-0.1,0.1-0.1
		c0.1-0.2,0.2-0.4,0.3-0.6c0.1-0.3,0.1-0.7,0.1-1c-0.2-5.4,1.4-10.8,0.6-16.2c0-0.2-0.1-0.4-0.1-0.7c0-0.2-0.1-0.4-0.1-0.7
		c-0.1-0.4-0.2-0.9-0.2-1.3c-0.1-0.3-0.1-0.6-0.2-0.9c-0.1-0.6-0.3-1.1-0.5-1.7c-0.3-1.1-0.7-2.2-1.2-3.3c-0.2-0.5-0.5-1.1-0.8-1.6
		c-0.6-1.1-1.3-2.1-2.1-3.2c-0.1-0.2-0.3-0.4-0.5-0.6c-0.2-0.2-0.3-0.4-0.5-0.6c-0.3-0.4-0.7-0.7-1-1.1c-0.2-0.2-0.5-0.5-0.7-0.7
		c-0.2-0.2-0.5-0.5-0.8-0.7c-0.6-0.5-1.1-1-1.7-1.4c-0.2-0.2-0.4-0.3-0.6-0.4c-0.3-0.2-0.5-0.4-0.8-0.5c-0.2-0.1-0.4-0.2-0.6-0.4
		c-0.2-0.2-0.5-0.3-0.8-0.5c-0.2-0.1-0.4-0.3-0.7-0.4c-0.3-0.1-0.5-0.3-0.8-0.4c-0.5-0.3-1.1-0.5-1.6-0.8c-0.3-0.1-0.5-0.2-0.8-0.4
		c-0.5-0.2-1.1-0.5-1.7-0.6c-0.6-0.2-1.1-0.4-1.7-0.6c0,0,0,0,0,0c-1.1-0.4-2.3-0.7-3.4-1c-0.4-0.1-0.8-0.2-1.2-0.3
		c-0.4-0.1-0.8-0.2-1.2-0.3c-0.8-0.2-1.7-0.4-2.5-0.6c-0.7-0.2-1.5-0.3-2.2-0.5c-0.7-0.1-1.4-0.3-2-0.4c-0.6-0.1-1.2-0.2-1.7-0.3
		c0,0-0.1,0-0.1,0c-0.6-0.1-1.2-0.2-1.9-0.2c-0.2,0-0.5-0.1-0.7-0.1c-0.2,0-0.5-0.1-0.7-0.1c-3.9-0.4-7.8-0.4-11.7-0.4
		c-1.2,0-2.5,0-3.7,0.1c-1.2,0-2.5,0.1-3.7,0.1c-1.1,0-2.2,0.1-3.4,0.1c0,0-0.1,0-0.1,0c-1.2,0-2.3,0.1-3.5,0.2
		c-1.1,0.1-2.3,0.3-3.4,0.5c-0.5,0.1-0.9,0.2-1.4,0.2c0,0,0,0,0,0c-0.2,0-0.3,0.1-0.5,0.1c-0.4,0.1-0.8,0.2-1.2,0.3
		c-0.4,0.1-0.7,0.2-1.1,0.3c-0.7,0.2-1.4,0.4-2.1,0.6c-0.8,0.3-1.6,0.6-2.4,0.9c-0.2,0.1-0.4,0.2-0.6,0.2c-0.5,0.2-0.9,0.4-1.4,0.7
		c-0.2,0.1-0.4,0.2-0.6,0.3c0,0-0.1,0-0.2,0.1c-0.5,0.3-1,0.6-1.5,0.9c-0.3,0.2-0.7,0.4-1,0.6c-0.7,0.5-1.4,1-2.1,1.5
		c-0.3,0.2-0.6,0.5-0.9,0.7c-0.1,0.1-0.3,0.2-0.4,0.4c-0.5,0.4-0.9,0.8-1.3,1.2h0c-0.2,0.2-0.5,0.5-0.7,0.7
		c-0.2,0.2-0.5,0.5-0.7,0.7c-0.4,0.5-0.8,1-1.1,1.5c-0.3,0.5-0.6,1-0.9,1.5c-0.1,0.3-0.3,0.5-0.4,0.8c-0.1,0.3-0.2,0.5-0.3,0.8
		c-0.1,0.3-0.2,0.5-0.3,0.8c-0.1,0.3-0.2,0.5-0.2,0.8c-0.4,1.4-0.6,2.8-0.7,4.2c0,0.3-0.1,0.6-0.1,0.9c-0.6,13.2-0.6,26.4-0.7,39.6
		c0,0.9,0,1.8,0.1,2.8c0,0.8,0.1,1.6,0.2,2.4c0.2,2.3,0.5,4.6,0.9,7c0.1,0.5,0.1,1,0.2,1.5c0.1,0.4,0.1,0.8,0.2,1.2
		c0.2,1.6,0.5,3.2,0.6,4.8c0.7,6.5,2,12.9,1.5,19.5c0,0.2,0,0.3-0.1,0.5C293.5,183.7,293.5,183.8,293.4,183.9z M273.3,238.1
		c-0.1,0.1-0.2,0.2-0.3,0.3c-0.1,0.1-0.2,0.2-0.3,0.3c-1.2,1.2-3.9,1.3-4,2.9c0,0.5,0.1,0.8,0.5,1.1c0,0,0,0,0.1,0
		c0,0,0.1,0.1,0.2,0.1c0.1,0.1,0.2,0.1,0.4,0.2c0.1,0.1,0.3,0.1,0.4,0.2c0.2,0.1,0.3,0.1,0.5,0.2c0.2,0.1,0.4,0.1,0.5,0.2
		c0.5,0.2,1,0.5,1.4,0.9c0.1,0.1,0.2,0.2,0.3,0.3c0,0,0,0,0.1,0.1c0,0,0.1,0.1,0.1,0.2c0.1,0.1,0.2,0.2,0.2,0.3c0,0,0,0.1,0,0.2
		c0,0.1,0,0.2-0.1,0.3c-0.3,0.7-1,0.6-1.6,0.3c-3.1-2-6.8-2.5-10.2-3.7c-0.1,0-0.2-0.1-0.3-0.1c-0.1,0-0.2-0.1-0.3-0.1
		c-0.1,0-0.2-0.1-0.3-0.2c-0.1,0-0.1-0.1-0.2-0.1c0,0-0.1-0.1-0.1-0.1c-0.1,0-0.1-0.1-0.1-0.1c0,0-0.1-0.1-0.1-0.1c0,0,0,0,0,0
		c0-0.1-0.1-0.1-0.1-0.2c0,0,0-0.1,0-0.1c0-0.1-0.1-0.2-0.1-0.2c0-0.1,0-0.3,0-0.4c0-0.1,0-0.2,0-0.4c0.1-0.2,0.2-0.4,0.3-0.6
		c0-0.1,0.1-0.1,0.2-0.2c0,0,0.1-0.1,0.1-0.1c0.1-0.1,0.2-0.1,0.3-0.2c0.1-0.1,0.3-0.1,0.5-0.2c0.1,0,0.2,0,0.3-0.1
		c3.6-0.8,7.1-1.6,10.5-2.3c0.4,0,0.8-0.1,1.1,0c0,0,0.1,0,0.1,0c0.1,0,0.1,0,0.2,0c0.1,0,0.1,0.1,0.2,0.1s0.1,0.1,0.2,0.1
		c0,0.1,0.1,0.1,0.1,0.2C273.7,237.4,273.5,237.8,273.3,238.1z M302.8,247.4c0-0.1,0-0.2,0.1-0.3c0-0.1,0-0.2,0.1-0.3
		c0.1-0.2,0.1-0.3,0.2-0.4c0.1-0.1,0.1-0.2,0.2-0.2c0.1-0.1,0.2-0.1,0.3-0.2s0.2-0.1,0.3-0.2c0.1,0,0.1,0,0.1-0.1
		c0.1,0,0.1-0.1,0.2-0.1c0.1,0,0.2-0.1,0.3-0.1c0.2-0.1,0.5-0.1,0.7-0.1c0.1,0,0.2,0,0.4,0s0.2,0,0.4,0c1.5-0.1,2.9,0.4,3.9,1.1
		c0.1,0.1,0.2,0.1,0.2,0.2c0.1,0.1,0.2,0.1,0.2,0.2c0,0,0.1,0.1,0.1,0.1c0,0,0.1,0.1,0.1,0.1c0.1,0.1,0.2,0.2,0.2,0.2
		c0.2,0.2,0.3,0.4,0.4,0.6c0,0.1,0.1,0.1,0.1,0.2c0,0,0,0.1,0,0.1c0,0.1,0.1,0.2,0.1,0.3c0,0.1,0,0.2,0,0.3v0.1c0,0.2,0,0.3-0.1,0.5
		c0,0.1,0,0.1,0,0.2c0,0.1,0,0.1-0.1,0.2c-0.1,0.2-0.2,0.3-0.3,0.5c0,0.1-0.1,0.1-0.2,0.2c-0.1,0.1-0.1,0.1-0.2,0.1
		c-0.2,0.1-0.3,0.2-0.6,0.3c-0.1,0-0.2,0.1-0.3,0.1c-0.3,0.1-0.5,0.1-0.9,0.2c-0.1,0-0.3,0-0.4,0c-0.2,0-0.5,0-0.7,0
		c-0.5,0-1-0.1-1.4-0.2c-0.3-0.1-0.6-0.2-0.9-0.3c-0.4-0.2-0.8-0.4-1.2-0.6c-0.2-0.2-0.5-0.3-0.7-0.5c-0.1-0.1-0.2-0.2-0.3-0.3
		c-0.2-0.2-0.3-0.4-0.5-0.6c-0.1-0.1-0.1-0.2-0.1-0.3c0-0.1-0.1-0.2-0.1-0.3c0,0,0-0.1,0-0.1C302.8,247.8,302.8,247.6,302.8,247.4z
		 M295.1,245.3c0,0.1,0,0.2-0.1,0.3c-3.1-1.3-4.7-3.7-6.2-6.2c-0.1-0.2-0.2-0.3-0.4-0.5c-0.1-0.1-0.2-0.2-0.3-0.2
		c-0.2-0.1-0.3-0.1-0.5-0.1c-0.1,0-0.1,0-0.2,0c-0.1,0-0.2,0.1-0.3,0.2c0,0-0.1,0.1-0.1,0.2c-0.2,0.2-0.3,0.5-0.5,0.6
		c-0.1,0.1-0.2,0.2-0.3,0.3c0,0-0.1,0-0.1,0.1c-0.1,0.1-0.2,0.1-0.3,0.2c-1.4,0.9-3.2,0.2-4.7,0.3c-0.1,0-0.2,0-0.3,0
		c-0.2,0-0.4,0-0.6,0c-0.1,0-0.2,0-0.3,0c-0.2,0-0.3,0-0.5-0.1c-0.1,0-0.2,0-0.3-0.1c-0.1,0-0.2,0-0.3-0.1c-0.2-0.1-0.4-0.2-0.5-0.3
		c-0.1,0-0.1-0.1-0.2-0.2c-0.1-0.1-0.1-0.2-0.2-0.3s-0.1-0.3-0.1-0.4c0-0.2,0-0.4,0-0.5c0-0.2,0-0.3,0-0.5c0-0.1,0-0.2,0-0.3
		c0-0.1,0-0.1,0-0.2c0-0.1,0.1-0.3,0.1-0.4c0.1-0.3,0.2-0.6,0.4-0.9c0.1-0.1,0.2-0.2,0.2-0.4c0.1-0.1,0.2-0.3,0.3-0.4
		c0.1-0.1,0.1-0.2,0.2-0.2c0.1-0.1,0.2-0.2,0.3-0.2c0.1-0.1,0.2-0.2,0.3-0.2c0.1,0,0.1-0.1,0.2-0.1c0.1,0,0.2-0.1,0.3-0.1
		c0.1,0,0.2-0.1,0.3-0.1c0.1,0,0.2-0.1,0.3-0.1c0.1,0,0.2,0,0.2,0c0.1,0,0.2,0,0.3,0.1c0,0,0.1,0,0.1,0.1c0,0,0,0,0.1,0
		c0,0,0.1,0.1,0.1,0.1c0,0,0,0,0,0.1c0,0,0.1,0.1,0.1,0.2c0.1,0.2,0.3,0.4,0.4,0.6c0.1,0.1,0.2,0.2,0.4,0.3c0,0,0.1,0.1,0.1,0.1
		c0.1,0.1,0.2,0.1,0.3,0.2c0.1,0,0.2,0,0.2,0.1c0.1,0,0.2,0,0.3,0c0.3,0,0.7-0.1,1-0.2c0.3-0.1,0.7-0.3,1-0.4
		c0.4-0.2,0.8-0.3,1.1-0.4c0.7-0.3,1.3-0.5,2-0.7c0.3-0.1,0.7-0.3,1-0.4c0.2-0.1,0.3-0.1,0.5-0.2c0.1-0.1,0.3-0.1,0.4-0.2
		c0.2-0.1,0.3-0.2,0.5-0.3c0.2-0.1,0.3-0.2,0.5-0.4c0.1,0,0.1-0.1,0.2-0.2c0,0,0,0,0,0s0,0,0,0c0,0,0,0,0,0c0.1-0.1,0.2-0.1,0.2-0.2
		c0.1-0.1,0.2-0.2,0.4-0.3c0.4-0.4,0.8-1,1.2-1.6c0.1-0.1,0.1-0.2,0.2-0.3c0.1-0.1,0.1-0.2,0.2-0.2c0.1-0.1,0.2-0.1,0.2-0.2
		c0.8-0.6,1.9-0.6,2.9-0.2c0.3,0.2,0.6,0.4,0.8,0.6c0.1,0.1,0.1,0.2,0.2,0.3c0,0.1,0.1,0.2,0.1,0.3c0.3,0.8,0.1,1.7-0.1,2.4
		c-0.1,0.3-0.2,0.7-0.3,1c0,0.1-0.1,0.3-0.1,0.4c-0.2,1.2-0.4,2.5-0.5,3.7c0,0.3-0.1,0.6-0.1,0.9c-0.1,0.3-0.1,0.6-0.2,0.9
		c0,0.1,0,0.2-0.1,0.2c-0.2,0.8-0.5,1.6-1,2.4c-0.1,0.2-0.2,0.4-0.4,0.6c-0.3,0.4-0.4,1-0.5,1.6C295.2,244.8,295.1,245,295.1,245.3z
		 M312.2,262.9c-1.1,1-1.6-0.4-2.2-0.8c-4.1-2.5-8-5.4-12.6-6.6c-1.6-0.4-2.2-1.3-2-2.9c0-0.2,0.1-0.4,0.2-0.6
		c0.1-0.2,0.1-0.3,0.2-0.5c0.2-0.3,0.4-0.5,0.7-0.7c0.1-0.1,0.2-0.2,0.4-0.2c0.1-0.1,0.3-0.1,0.4-0.2c0,0,0,0,0,0
		c0.1,0,0.3-0.1,0.4-0.1c0.2,0,0.3-0.1,0.5-0.1c2.1,0,14.1,8.3,14.6,9.9C313,261.1,313.2,262.1,312.2,262.9z M432.4,212
		c-1,1.4-2,2.8-3,4.2c-1,1.6-3,1.2-4.3,1.4c-11.2,1.3-19.2,8-26.8,15.4c-5.6,5.4-10.9,11.1-16.4,16.6c-2.6,2.6-6.1,3.5-9.4,5
		c-0.1,0.3-0.3,0.6-0.6,0.7c-0.2,0.1-0.4,0.1-0.6,0c-0.6-0.3-0.5-0.8-0.2-1.2c0.9-3.7,3.9-5.9,5.9-8.7c8.2-11.1,17.8-21,28.2-30.1
		c4.4-3.8,9.1-7.2,14.5-9.5c4-1.7,7.8-1.2,11.4,0.9C433.5,208,433.9,209.9,432.4,212z"/>
	<path class="st2" d="M432.4,212c-1,1.4-2,2.8-3,4.2c-1,1.6-3,1.2-4.3,1.4c-11.2,1.3-19.2,8-26.8,15.4c-5.6,5.4-10.9,11.1-16.4,16.6
		c-2.6,2.6-6.1,3.5-9.4,5c-0.3-0.5-0.8-0.6-1.3-0.6c0.9-3.7,3.9-5.9,5.9-8.7c8.2-11.1,17.8-21,28.2-30.1c4.4-3.8,9.1-7.2,14.5-9.5
		c4-1.7,7.8-1.2,11.4,0.9C433.5,208,433.9,209.9,432.4,212z"/>
	<path class="st1" d="M176.7,362.4c-0.3,0.8-0.7,1.5-1.1,2.2c-0.1,0.2-0.3,0.5-0.5,0.7c-0.2,0.2-0.3,0.4-0.5,0.6
		c-0.2,0.2-0.4,0.4-0.6,0.6c-0.4,0.4-0.8,0.7-1.3,1c-0.3-0.2-0.7-0.3-1-0.5c-0.2-0.1-0.4-0.3-0.5-0.4c-7.6-5.9-15.2-11.8-22-18.5
		c-15.7-15.3-32.5-29.2-50.1-42.3c-12.1-9-24.9-17-38.8-22.9c-5.1-2.1-10.7-3.2-16.2-4.2c-10-1.8-20.2-2.3-30.4-2.8
		c-1.3-0.1-2.4-0.2-3.3-1.2c-1.9-2.4-4.8-3.6-7-5.7c-3.4-3.2-2.7-6.3,1.6-8.3c1.1-0.5,2.2-0.6,3.3-0.6c18.9,0.4,36.7,5.2,53.9,13.2
		c18,8.3,33.5,20.3,49.4,31.7c12.3,8.8,22.6,19.8,33,30.7c5.5,5.8,10.8,11.7,17,16.6c3.9,3.1,8.4,5.4,12.5,8.2
		C175,361.3,175.9,361.8,176.7,362.4C176.7,362.4,176.7,362.4,176.7,362.4z"/>
	<path class="st1" d="M221.1,351.9c-2.6,0.7-5.2,1.5-7.8,1.8c-4,0.4-8.1,1.1-12.4,0.6c-4.7,0.8-9.4-0.4-14.1-1.2
		c-3.9-0.7-6.2-4.2-9.1-6.6c-1.9-1.5-3.7-3.2-5.7-4.5c-1.2-0.8-3.2-1.7-1.6-3.4c1.3-1.5,3-3.3,5.4-1.5c3.3,2.3,6.7,4.7,10,7
		c5,3.4,10.3,4.7,16.4,4.5c5.1-0.2,10.4-1.1,15.4,1c0.7,0.3,1.8-0.2,2.7-0.3c1-0.1,2.5-0.9,2.9,0.6
		C223.6,350.9,222.2,351.6,221.1,351.9z"/>
	<path class="st3" d="M322.1,240L322.1,240c-0.1,0.2-0.2,0.3-0.3,0.4c-0.7,0.8-1.8,0.5-2.7,0.9c-0.4,0.1-0.9,0.3-1.3,0.5
		c-0.7,0.3-1.4,0.7-2,1.2c-0.4,0.4-0.7,0.9-0.9,1.5l0,0c-0.5,0.2-1,0.1-1.4-0.2c-2-1.3-3.8-1.8-5.6-1.7c-0.1,0-0.3,0-0.4,0
		c-0.1,0-0.3,0-0.4,0c-0.1,0-0.3,0-0.4,0.1c-0.4,0.1-0.7,0.2-1,0.3c-0.1,0-0.2,0.1-0.3,0.1c-0.1,0-0.2,0.1-0.3,0.1
		c-0.2,0.1-0.5,0.2-0.7,0.3c-1.4,0.7-2.8,1.7-4.1,2.8c-0.4,0.3-0.8,0.8-1.3,1.1c0,0-0.1,0-0.1,0.1c0,0-0.1,0-0.2,0.1
		c-0.3,0.1-0.6,0-1-0.3c-0.1-0.1-0.2-0.2-0.2-0.2c0-0.1-0.1-0.1-0.1-0.1c0-0.1-0.1-0.2-0.1-0.3c-0.1-0.2-0.1-0.4,0-0.7
		c0-0.1,0-0.1,0-0.2c0.1-0.3,0.1-0.5,0.3-0.8c0-0.1,0.1-0.1,0.1-0.2c0-0.1,0.1-0.2,0.1-0.3c0.3-0.6,0.7-1.3,1-1.8
		c0.1-0.2,0.3-0.5,0.5-0.7c0,0,0,0,0-0.1c0.2-0.2,0.3-0.4,0.5-0.6c0.1-0.2,0.2-0.3,0.4-0.5c0,0,0,0,0,0c0.1-0.1,0.3-0.3,0.4-0.4
		c0.2-0.1,0.3-0.3,0.5-0.4c0.2-0.1,0.3-0.2,0.5-0.3c0.1-0.1,0.2-0.1,0.3-0.2c0.3-0.2,0.6-0.3,1-0.4c0.1-0.1,0.3-0.1,0.5-0.1
		c0.1,0,0.2-0.1,0.3-0.1c0.1,0,0.1,0,0.2,0c0.2,0,0.3-0.1,0.5-0.1c0.2,0,0.3,0,0.5-0.1c0.1,0,0.2,0,0.4,0c0,0,0.1,0,0.2,0h0
		c0.1,0,0.3,0,0.4,0c0.4,0,0.9,0,1.3-0.1c0.1,0,0.3,0,0.4-0.1c0.3-0.1,0.6-0.2,0.9-0.4c0.1,0,0.2-0.1,0.3-0.2
		c0.2-0.1,0.4-0.3,0.5-0.5l0,0c1.2,0.6,2.5,1,3.5,1.7c1.4,0.9,2.6,0.7,4,0.1l0,0c0.7,1.1,1.6,0.9,2.6,0.7
		C320.3,239.6,321.2,239.1,322.1,240z"/>
	<path class="st1" d="M193.8,371c-5.1-0.1-10.1-0.6-14.8-2.7c-0.7-0.3-1.3-0.5-1.8-0.3c-0.1,0-0.1,0-0.2,0.1c0,0-0.1,0.1-0.1,0.1
		c0,0,0,0,0,0.1c-0.1,0.1-0.1,0.2-0.2,0.4c-0.1,0.2-0.1,0.5-0.1,0.9c-1.6-0.1-2.8-0.9-3.9-2c0.5-0.3,0.9-0.7,1.3-1
		c0.2-0.2,0.4-0.4,0.6-0.6c0.2-0.2,0.4-0.4,0.5-0.6c0.2-0.2,0.3-0.5,0.5-0.7c0.4-0.7,0.8-1.5,1.1-2.2c0,0,0,0,0,0
		C182,366,188.4,367.6,193.8,371z"/>
	<path class="st1" d="M211.8,288.1c-1.7,0.8-3.4,1.6-5.1,2.5c-4.3,2.1-4.3,2.1-6-2.5C204.4,288,208.1,288.1,211.8,288.1z"/>
	<path class="st1" d="M349.4,248.4c-1.6-0.5-4.7,0.8-5.8-1.6c0.2,0.1,0.4,0.1,0.6,0.1c0,0,0,0,0,0c0.2,0,0.4,0,0.7-0.1
		c0.9-0.2,1.9-0.7,2.6-1c0,0,0,0,0,0c0.1,0,0.2-0.1,0.4-0.1c0.5,0,0.7,0.2,1.2,0.3l-0.2,0.3c-0.1,0.4-0.2,1.1,0.1,1.6
		C349.2,248.1,349.3,248.3,349.4,248.4z"/>
	<path class="st1" d="M219,286.1c-0.6,0.1-1.2,0.2-1.8,0.3c0.2-0.4,0.4-0.6,0.6-0.7c0,0,0.1,0,0.1,0c0,0,0.1,0,0.1,0
		c0.1,0,0.1,0,0.2,0c0.1,0,0.1,0,0.2,0.1c0.1,0,0.1,0.1,0.2,0.1C218.8,286,218.9,286,219,286.1L219,286.1
		C219,286.1,219,286.1,219,286.1z"/>
	<path class="st4" d="M171.2,366.7c0.2,0.1,0.4,0.3,0.5,0.4C171.6,367,171.4,366.8,171.2,366.7z"/>
	<path class="st4" d="M195.8,371.5c-0.2-0.1-0.4-0.2-0.6-0.3C195.5,371,195.7,371.1,195.8,371.5z"/>
	<path class="st5" d="M227.7,69.6c5.5,2.5,10.5,5.8,15.2,9.5c8.7,6.8,16.7,14.4,24.3,22.4c6.7,7.1,10.2,15.8,11.5,25.4
		c0.4,2.9,0.8,5.9,1.3,9.7c-2.8-3.2-3.9-6.3-5.7-8.9c-0.6-0.9-1.2-1.6-2.1-2.1c-5.7-3.1-11.8-5.3-18.3-5.5
		c-4.1-0.1-8.4,0.8-12.4,2.7c-6.7,3.1-12.9,7.1-19.3,10.6c-8.4,4.6-17.5,6.1-26.9,7c-6.5,0.6-12.9,2.9-19.3,4.4
		c-13.2,3.1-25.9,7.7-39.2,10.4c-8.4,1.7-17,2.8-25.5,4.3c-7.8,1.4-15.5,3.6-23.5,2.9c-3.1-0.3-6.2-1.1-9.4-1.1
		c-5.5,0-11,0.1-16.5,0.7c-10,1.1-20,2-30,0.5c-4.6-0.7-9.1,0.5-14.3,1.7c4.5-5.6,8.4-10.5,14.4-13.9c8.3-4.7,16.7-9.6,23.9-15.8
		c9.8-8.5,14.3-20.2,18-32.2c3.5-11.3,6.1-22.8,9.9-34c2.6-7.6,6.9-14.8,12.2-20.7c5-5.7,12.3-8.5,19.8-10.1
		c9.3-2,18.8-3.2,28.2-2.3c9.8,0.9,19.5,3.3,28.5,7.5c3.9,1.8,6.8,5.1,10,8c2.7,2.4,5.2,4.7,9.1,4.8c1.2,0,2.3,0.7,3.4,1
		c-5.3-0.5-10.1,2.3-15.3,2.6c-0.5,0-1.1,0.4-1.1,0.9c-0.1,1.1,0.9,1.2,1.6,1.5c5.1,1.9,10.1,3.8,15.2,5.5c13,4.4,24,12,34.3,20.7
		c2.9,2.5,5.5,2.9,8.8,1.9c2.3-0.7,3-2.7,2.2-4.3c-1.9-3.7-4-7.3-7.1-10.2C232,73.2,228.9,72.4,227.7,69.6z M171.7,62.1
		c-2.4,1-4.8,1.9-7.1,3.1c-8,4.2-14.4,10.3-20,17.3c-1.2,1.5-1.6,4.5,0.6,5.4c6.2,2.7,11.8,7,19.2,6.4c2.9-0.3,6-0.3,8.9,0.1
		c2.9,0.4,5.6,0.6,8.5-0.1c8-1.8,16-1.9,23.9-0.1c1.5,0.3,2.9,0.9,4.5,0.2c3.4-1.6,6.8-3.2,10.4-4.4c2.7-0.9,2.8-1.8,0.7-3.8
		c-0.4-0.4-0.9-0.8-1.4-1.2c-12.9-7.8-25.7-15.9-40.2-20.7C177,63.4,174.4,62.8,171.7,62.1z M128.9,58.5c-3.8-2.7-7.7-4-11.5-5.7
		c-0.8-0.4-2-0.6-1.5-1.9c0.5-1.3,1.5-1.1,2.6-0.6c3.7,1.8,7.6,3,11,5.4c4.9,3.5,10.8,4,15.8,2.1c6.2-2.4,11.7-6.5,17.7-9.6
		c2.1-1.1,1.9-3.4-0.1-4.7c-3.1-2-6.4-3.5-10-4.4c-4.1-1-8.2-1.3-12.3-2.2c-7.6-1.5-14.8-0.1-21.2,4.2c-7.9,5.3-8.2,6.3-5.6,14.4
		c0.3,0.8,0.4,1.5,1.4,1.7C119.5,58.3,123.7,60.6,128.9,58.5z M63.9,158.9c5-1.4,10.2-1,15.2-1.1c10.4-0.2,19-5.7,28.6-8.3
		c2.4-0.6,2.5-3,0.5-4.5c-3.7-2.7-7.4-5.4-11.1-8.1c-1.3-1-2.6-0.8-4,0c-4.1,2.1-8.4,3.7-12.7,5.4c-7.6,3-14.9,6.8-22.2,10.3
		c-1.9,0.9-2.3,3.3-0.8,4C59.4,157.7,61.3,159.2,63.9,158.9z"/>
	<path class="st4" d="M310.8,87.4c-3.6,5.7-2.9,11.8-1.2,17.8c0.3,1.2,0.8,2.3,1.4,3.4c0.4,0.8,1.4,1.3,1.9,0.3
		c1.4-3.1,4.5-3.2,7.1-4.2c1.3-0.5,2.8-0.7,4.1-1.1c1.9-0.4,3.3,0,5.1,1.1c6.7,4.2,11,10.1,14,17.2c0.7,1.6,1.6,4.3,3.3,3.8
		c1.8-0.6,0.2-3,0-4.6c-0.2-1.6-0.8-3.2-1.1-4.8c-0.3-1.5,0.3-2.1,1.6-1.2c4.6,2.9,9.7,3.4,14.9,3.8c2.5,0.2,4.4,2,6.3,3.5
		c0.7,0.6,1.6,1.4,2.4,1c1.1-0.5,0-1.4,0-2.2c0-0.5,0.1-1.1,0.3-1.4c3.1-4.5,4.4-9.9,6.7-15c1,1.4,1.4,2.8,1.4,4.4
		c0.2,5.3,0.4,10.6,0.6,15.9c0,0.7-0.4,1.9,0.8,2c1,0,1.1-1,1.1-1.9c-0.2-5.4,1.4-10.8,0.6-16.2c-0.7-4.8-2-9.2-5.2-13.3
		c-6.7-8.5-16.1-10.6-25.7-12.6c-9.8-2.1-19.8-1.5-29.7-1.1c-9.4,0.4-18.2,2.7-25.6,9.7c-4,3.8-5.1,8.1-5.3,12.7
		c-0.6,13.2-0.6,26.4-0.7,39.6c0,6.6,1.4,13.1,2.1,19.7c0.7,6.5,1.9,12.9,1.5,19.5c-0.2,3.6-3.7,3.3-5.9,4.3c-2,0.9-2.2-1.4-2.7-2.5
		c-3.1-6.1-1.8-12.6-1.5-19c0.3-5.4,1.4-10.6,0.5-16.1c-0.6-3.3-0.3-6.8-0.1-10.1c0.3-5.4-0.6-10.6-1.7-15.8
		c-0.8-3.5-0.1-7,0.5-10.3c1.5-7.3-0.6-14.1-1.6-21.2c-2.5-19.5-13.2-35.7-21.8-52.6c-2.4-4.6-4.4-9.1-5-14.3c-0.1-0.5-0.1-1,0-1.5
		c0.7-4.6,8-9.1,12.5-8.1c2.9,0.6,5.7,1.5,8.5,2.2c7,3.9,14.3,6.8,21.7,9.7l0,0c0.5,0.2,0.7,1.1,1.5,0.7c5.5,3.4,10.8,7.2,15.2,12
		c0.6,0.7,1.4,1.8-0.2,2c-4.7,0.6-7.6,4-10.9,6.7c-1.1,0.9-2,2-3,3c-0.8,0.8-1.4,1.5-0.5,2.6c0.9,1.2,1.9,0.7,2.9,0.1
		c4.5-2.9,8.5-6.2,12.6-9.6c1.1-0.9,1.9-1.8,3.2-0.3c1.2,1.3,3.3,0.9,4.7,1.9c-1,1.2-2.5,1.4-3.9,1.7c-6,1.5-11,5.4-14.4,9.8
		c-4.1,5.2-5.6,12.1-5.1,19c0.1,1.8,1.3,2.9,3.4,2.7c2.7-0.2,4.9-1.4,6.8-3.1c3.5-3.1,6.6-6.7,12.1-6.6c4.2,0.1,8.6-1.1,12.8-0.7
		c5,0.5,10,2.1,14.3,4.9c4.1,2.7,8.8,4.3,13.3,6.1c2.1,0.8,4.3,1.1,6.1-0.4c1.8-1.5,0.7-3.6,0.3-5.4c5.4,5.3,9.5,11.5,12.1,18.5
		c1.4,3.9,2.1,8.3,2.3,12.5c0.4,8.3,0.5,16.6,0,24.9c-0.8,12.9,3.3,24.6,8.5,35.9c2.3,4.9,2.8,9.7,2.6,14.9
		c-0.1,2.4-1.2,2.8-3.3,1.9c-5.8-2.7-11.6-5.7-17.5-8.1c-10.6-4.3-18.9-11.9-27.8-18.7c-9.4-7.3-16-17.1-23.8-25.7
		c-5.5-6.1-10.5-12.5-14.6-19.5c-3.5-6-5.3-12.3-4.6-19.3c0.1-1.3,0.8-1.8,1.8-2.2C306.2,89.1,308.5,88.3,310.8,87.4L310.8,87.4z
		 M295.4,62.4c0-1.1,0-1.8-0.6-2.3c-0.8-0.6-1.4,0.1-1.8,0.6c-2.9,3.1-4,7.1-5.3,11c-0.1,0.5,0.3,1.1,0.5,1.7
		c0.4,1.2,1.1,0.9,1.5,0.2C292.3,70.2,293.9,66.2,295.4,62.4z"/>
	<path class="st6" d="M368.2,74.9c0.4,1.8,1.5,3.9-0.3,5.4c-1.8,1.5-4,1.3-6.1,0.4c-4.5-1.8-9.2-3.3-13.3-6.1
		c-4.3-2.8-9.3-4.4-14.3-4.9c-4.2-0.4-8.5,0.8-12.8,0.7c-5.5-0.2-8.6,3.4-12.1,6.6c-1.9,1.7-4.1,2.9-6.8,3.1
		c-2.1,0.1-3.2-0.9-3.4-2.7c-0.5-6.9,1-13.8,5.1-19c3.5-4.4,8.4-8.3,14.4-9.8c1.3-0.3,2.8-0.6,3.9-1.7c7.8,1,14.5,4.6,20.7,8.9
		c6.5,4.5,13.2,8.7,19.2,13.8C364.5,71.2,366.5,72.9,368.2,74.9z"/>
	<path class="st6" d="M227.7,69.6c1.2,2.8,4.2,3.6,6.2,5.5c3,2.9,5.2,6.5,7.1,10.2c0.8,1.6,0.1,3.6-2.2,4.3
		c-3.3,1.1-5.9,0.6-8.8-1.9C219.7,79,208.7,71.4,195.7,67c-5.1-1.7-10.2-3.6-15.2-5.5c-0.7-0.3-1.7-0.4-1.6-1.5
		c0-0.5,0.6-0.9,1.1-0.9c5.2-0.3,10-3,15.3-2.6c10.1,2.4,19.8,6.1,29.1,10.7c0.8,0.4,1.7,0.7,2.2,1.6
		C226.7,69.4,227.2,69.6,227.7,69.6L227.7,69.6z"/>
	<path class="st4" d="M251.5,123.1c5.7,0.4,10.8,1.2,15.8,2.7c1,0.3,1.6,1.1,2.4,1.8c5.9,5.4,7.6,12.8,9.7,20
		c0.5,1.9,2.5,4.4,0.9,5.7c-1.4,1.1-3.5-1.3-5.4-2c-11.3-4.1-20.5-11.6-29.4-19.4c-1.4-1.3-2.9-2.5-4.4-3.8c-1-0.9-1.1-1.8,0.3-2.2
		C244.9,124.9,248.2,122.9,251.5,123.1z"/>
	<path class="st4" d="M295,245.6c-3.1-1.3-4.7-3.7-6.2-6.2c-0.4-0.7-1.2-1.2-1.7-0.5c-1.6,2.4-3.9,1.4-5.9,1.5
		c-1.2,0.1-3.2,0-3.3-1.4c-0.1-1.6,0.4-3.5,2.2-4.4c0.6-0.4,1.4-0.8,1.9,0.1c1,1.8,2.4,1.1,3.7,0.6c3-1.2,6.3-1.8,8.1-5.1
		c0.7-1.2,2.3-1.5,3.6-0.9c1.5,0.7,1.3,2.4,0.9,3.6c-1,3.4-0.4,7.1-2.6,10.2C295.2,243.7,295.2,244.7,295,245.6z"/>
	<path class="st3" d="M336.8,242.4c1.7,1.3,3.6,2.4,5,4c3.5,4.1,8,4.6,12.8,3.7c1.5-0.2,2.8-0.2,4.2,0.3c4.2,1.6,8.5,3,12.2,5.6
		c1.6,1.1,2.9,2.5,1.4,4.6c-1.6,2.2-3.2,0.9-4.3-0.5c-5.6-6.8-13.6-7.4-21.5-8.2c-3.1-0.3-6-0.7-7.7-3.9c-1.4-2.6-3.2-4.8-6.7-4.1
		c-0.6,0.1-1.2-0.2-1.1-1.1C332.9,242,334.9,242.4,336.8,242.4z"/>
	<path class="st3" d="M298.2,250.2c2,0,14.1,8.3,14.5,9.9c0.3,1,0.4,2-0.5,2.8c-1.1,1-1.6-0.4-2.2-0.8c-4.1-2.5-8-5.4-12.6-6.6
		c-1.6-0.4-2.2-1.3-2-2.9C295.7,251,297,250.4,298.2,250.2z"/>
	<path class="st3" d="M271.7,236.5c0.8,0,1.5-0.3,1.8,0.4c0.4,0.9-0.4,1.2-0.9,1.7c-1.2,1.2-3.9,1.3-4,2.9c-0.1,1.8,2.8,1.6,3.9,2.9
		c0.3,0.4,0.9,0.7,0.6,1.3c-0.3,0.7-1,0.6-1.6,0.3c-3.1-2-6.8-2.5-10.2-3.7c-0.9-0.3-1.7-0.8-1.7-1.9c0-1.1,0.9-1.4,1.6-1.6
		C264.7,237.9,268.3,237.2,271.7,236.5z"/>
	<path class="st3" d="M336.8,242.4c-2-0.1-3.9-0.5-5.8,0.4c-0.7,0-1.5,0-2.2,0c-2.2-1.9-8.5-0.9-11.4,1.8c-0.8,0-1.7,0.4-2.4-0.2
		c0.7-1.9,2.5-2.5,4.2-3.1c1-0.3,2.3,0,3-1.2c1.2-0.1,2.3-0.2,3.5-0.3c1,0.8,1.9,0.7,2.7-0.3c0.9,0,1.7,0,2.6,0
		c0.5,1.1,1.3,1,2.2,0.4C334.7,240.1,335.9,241.1,336.8,242.4z"/>
	<path class="st3" d="M308,251.2c-2.6,0-5.4-1.9-5.1-3.8c0.3-1.7,1.9-2,3.3-2.1c2.9-0.1,5.6,1.7,5.5,3.6
		C311.5,250.6,310.5,251.2,308,251.2z"/>
	<path class="st4" d="M297,27.7c-7.4-2.9-14.8-5.8-21.7-9.7c7,2,13.6,4.7,20,8.1C295.9,26.5,296.8,26.8,297,27.7z"/>
	<path class="st3" d="M317.4,244.6c3-2.7,9.2-3.7,11.4-1.8C325,243.4,321.2,244,317.4,244.6z"/>
	<path class="st3" d="M328.3,239.3c-0.8,1-1.7,1.1-2.7,0.3C326.3,238.4,327.3,238.8,328.3,239.3z"/>
	<path class="st3" d="M333,239.8c-0.9,0.6-1.6,0.6-2.2-0.4C331.8,238.6,332.5,238.7,333,239.8z"/>
	<path class="st3" d="M372.6,254.7c-0.1,0.3-0.3,0.6-0.6,0.7c-0.2,0.1-0.4,0.1-0.6,0c-0.6-0.3-0.5-0.8-0.2-1.3h0
		C371.8,254,372.2,254.2,372.6,254.7z"/>
	<path class="st4" d="M298.5,28.4c-0.8,0.4-1-0.5-1.5-0.7C297.5,27.9,298,28.1,298.5,28.4z"/>
	<path class="st5" d="M227.7,69.6c-0.6,0-1-0.2-1.2-0.7C227,68.9,227.5,69.1,227.7,69.6z"/>
	<path class="st4" d="M310.8,87.4c0.1-0.1,0.2-0.2,0.2-0.2c0,0.1,0,0.1-0.1,0.1C310.9,87.4,310.8,87.4,310.8,87.4
		C310.8,87.4,310.8,87.4,310.8,87.4z"/>
	<path class="st6" d="M171.7,62.1c2.7,0.7,5.4,1.3,8,2.2c14.5,4.8,27.3,12.9,40.2,20.7c0.5,0.3,1,0.7,1.4,1.2c2.1,2,2.1,2.9-0.7,3.8
		c-3.6,1.2-7,2.8-10.4,4.4c-1.6,0.7-3,0.2-4.5-0.2c-8-1.9-16-1.7-23.9,0.1c-2.9,0.6-5.6,0.5-8.5,0.1c-2.9-0.4-5.9-0.4-8.9-0.1
		c-7.4,0.7-13-3.7-19.2-6.4c-2.2-0.9-1.8-3.9-0.6-5.4c5.6-6.9,12-13.1,20-17.3C166.9,64,169.3,63.1,171.7,62.1z"/>
	<path class="st6" d="M128.9,58.5c-5.3,2.1-9.4-0.3-13.7-1.2c-1-0.2-1.2-0.9-1.4-1.7c-2.6-8-2.3-9.1,5.6-14.4
		c6.4-4.3,13.5-5.7,21.2-4.2c4.1,0.8,8.2,1.2,12.3,2.2c3.7,0.9,6.9,2.4,10,4.4c2,1.2,2.2,3.6,0.1,4.7c-6,3-11.6,7.2-17.7,9.6
		c-5,2-10.9,1.4-15.8-2.1c-3.4-2.4-7.3-3.7-11-5.4c-1.1-0.5-2.1-0.7-2.6,0.6c-0.5,1.2,0.7,1.5,1.5,1.9
		C121.2,54.5,125.1,55.9,128.9,58.5z"/>
	<path class="st6" d="M63.9,158.9c-2.6,0.3-4.5-1.2-6.6-2.3c-1.5-0.8-1-3.1,0.8-4c7.3-3.6,14.6-7.4,22.2-10.3
		c4.3-1.7,8.6-3.3,12.7-5.4c1.4-0.7,2.6-0.9,4,0c3.7,2.7,7.5,5.3,11.1,8.1c2,1.5,1.9,3.8-0.5,4.5c-9.6,2.6-18.2,8.1-28.6,8.3
		C74.1,157.8,68.9,157.4,63.9,158.9z"/>
	<path class="st1" d="M295.4,62.4c-1.5,3.8-3.1,7.8-5.8,11.3c-0.5,0.6-1.2,0.9-1.5-0.2c-0.2-0.6-0.7-1.3-0.5-1.7
		c1.3-3.9,2.4-7.9,5.3-11c0.5-0.5,1-1.1,1.8-0.6C295.4,60.6,295.4,61.4,295.4,62.4z"/>
</g>
<path class="st2" d="M434.2,229.7c-1.1-0.6-1.8-1.6-2.8-2.3c-2.7-2-5.2-3.4-9.2-2.9c-8.4,1.1-14.2,6.2-20,11.6
	c-5.1,4.7-10,9.6-15.4,14c-2.7,2.2-1.9,5.9-1.2,8.9c0.7,2.9,1.6,5.9,3.3,8.5c0.6,0.9,0.8,1.7-0.2,2.4c-1.2,0.8-1.6-0.2-2.1-1
	c-1.4-2.5-3.1-4.8-4.1-7.5c-0.8-2-1.7-2.3-3.4-1.5c-9.5,4.3-18.5,9.5-26.4,16.5c-4.7,4.2-9.5,8.4-14.4,12.4
	c-3.2,2.6-5.4,5.9-7.2,9.4c-1.2,2.4,0.9,4.8,1.6,7.2c0.8,2.7,1.9,5.4,3.1,8c0.5,1.2,0.3,2.1-0.6,2.6c-1.2,0.7-1.4-0.7-1.8-1.4
	c-3.2-5.5-6.1-11.2-11.6-15c-3-2.1-6.3-2.7-9.7-3.6c-11.8-3.1-23.7-3.5-35.8-1.9c-5.9,0.8-12,1-17.8,2.6c-3.4,0.9-5.9-0.6-8.3-2.5
	c-9.3-7.1-20-8.6-31.3-8c0,0,0,0,0,0c-0.6,0.1-1.2,0.2-1.8,0.3c0.2-0.5,0.5-0.7,0.9-0.7c-0.3,0-0.7,0.2-0.9,0.7
	c-1.9,0.2-3.7,0.8-5.5,1.6l-11.1-0.1c-2.3-4.8-6.1-7.9-10.6-10.7c-8.6-5.2-13.5-13.4-17.1-22.6c-4.7-11.9-2.7-10.3-14.9-6.7
	c-5.5,1.6-10.9,3.4-15.7,6.7c-0.5,0.3-1.1,0.7-1.7,0.2c-0.6-0.5-0.5-1.4-0.3-2c0.2-0.5,0.7-1,1.2-1.3c4.5-2.8,8.8-5.8,13.6-8.1
	c11.4-5.6,23.6-8.8,36.3-10.3c10.3-1.2,20.5-2.2,30.8-1.7c4.7,0.2,9.3,0.6,13.9,1.6c7.8,1.6,15.6,0.8,23.4-0.6
	c15.1-2.8,29.6-7.5,43.9-12.7c6.5-2.3,8.9-13.2,4.5-18.6c-3.2-3.9-7.5-5.4-12-5.9c-13.2-1.5-26.1-3.9-38.6-8.1
	c-6.3-2.1-13-1.6-19.5-0.7c-11.5,1.8-23,3.5-34.4,5.6c-9.2,1.7-18.3,1.9-27.3-0.6c-3.8-1.1-7.5-2.5-11.2-4.1
	c-7.2-3.1-14.9-3.3-22.5-4.5c-10.7-1.6-20.9,0.5-31.2,3c-8.6,2.1-17.4,3.3-26.2,4.5c-2.7,0.4-5.2,1.3-6.1,4.5
	c-0.6,2.1-2.4,1.4-3.1,0.6c-1.9-1.9-4.1-3.8-5.2-6.3L5.1,260.8c1.1-0.5,2.2-0.6,3.3-0.6c18.9,0.4,36.7,5.2,53.9,13.2
	c18,8.3,33.5,20.3,49.4,31.7c12.3,8.8,22.6,19.8,33,30.7c5.5,5.8,10.8,11.7,17,16.6c3.9,3.1,8.4,5.4,12.5,8.2
	c0.8,0.6,1.7,1.1,2.5,1.7c0,0,0,0,0,0c5.3,3.6,11.7,5.2,17.1,8.6c-5.1-0.1-10.1-0.6-14.8-2.7c-0.7-0.3-1.3-0.5-1.8-0.3
	c0.5-0.2,1.1,0,1.8,0.3c4.7,2.1,9.7,2.6,14.8,2.7c0.4,0.1,0.9,0.1,1.3,0.2c0.2,0.1,0.4,0.2,0.7,0.3c-0.2-0.1-0.4-0.2-0.6-0.3
	c0.4-0.2,0.5,0,0.6,0.3c6.3,1,12.4,0.5,18.7-0.9c7-1.6,13.9-3.7,20.9-5.3c15.7-3.7,31.4-7.4,47-11.7c6.5-1.8,13.3-1.7,19.9-3.4
	c0.4-0.1,0.9,0,1.2-0.2c0.9-0.4,2.3-0.7,2.2-1.9c-0.1-1.5-1.6-1-2.5-0.9c-4.5,0.6-9,1.6-13.6,2c-15.1,1.2-30.2,2.5-45.3,0.9
	c-1.6-0.2-3.1-0.9-4.7-1.1c-2-0.3-2.1-1.7-2-3.2c0.1-1.5,1-2.5,2.6-2.5c1.6-0.1,3.3-0.2,4.9,0c6.8,1.2,13.6,0.4,20.3-0.1
	c6.6-0.4,13.1-1.3,19.6-2.2c6.8-1,13.7-1,20.5-0.9c8.4,0.1,16.7,0.1,25.1-0.5c4.6-0.3,7.4-3.4,10.6-6.1c7.9-6.7,14.5-14.7,22-21.8
	c4.2-4.1,9.1-7.3,13.5-11c7.4-6.1,14.7-12.3,23.1-16.9c0.9-0.5,1.5-1.4,2.1-2.2c9.5-14.1,19.4-27.9,29.6-41.5c1.5-2,2.9-4.2,3.9-6.5
	C436,231.9,435.7,230.6,434.2,229.7z M211.8,288.1c-1.7,0.8-3.4,1.6-5.1,2.5c-4.3,2.1-4.3,2.1-6-2.5
	C204.4,288,208.1,288.1,211.8,288.1z M221.1,351.9c-2.6,0.7-5.2,1.5-7.8,1.8c-4,0.4-8.1,1.1-12.4,0.6c-4.7,0.8-9.4-0.4-14.1-1.2
	c-3.9-0.7-6.2-4.2-9.1-6.6c-1.9-1.5-3.7-3.2-5.7-4.5c-1.2-0.8-3.2-1.7-1.6-3.4c1.3-1.5,3-3.3,5.4-1.5c3.3,2.3,6.7,4.7,10,7
	c5,3.4,10.3,4.7,16.4,4.5c5.1-0.2,10.4-1.1,15.4,1c0.7,0.3,1.8-0.2,2.7-0.3c1-0.1,2.5-0.9,2.9,0.6
	C223.6,350.9,222.2,351.6,221.1,351.9z"/>
</svg>
